<svg width="235" height="54" viewBox="0 0 235 54" fill="none" xmlns="http://www.w3.org/2000/svg">
<rect width="235" height="54" rx="27" fill="#82FF1F"/>
<path d="M26.64 34.5V19.92H33.6C36.52 19.92 38.14 21.46 38.14 23.64C38.14 25.12 37.4 26.34 35.66 26.96C37.6 27.48 38.54 28.84 38.54 30.46C38.54 32.94 36.58 34.5 33.48 34.5H26.64ZM33.16 21.94H29.02V26.06H33.16C34.88 26.06 35.68 25.26 35.68 24.02C35.68 22.64 34.68 21.94 33.16 21.94ZM33.24 28.04H29.02V32.46H33.24C35.16 32.46 36.02 31.6 36.02 30.24C36.02 28.82 35.1 28.04 33.24 28.04ZM44.8745 34.7C41.5945 34.7 39.3745 32.56 39.3745 28.86C39.3745 25.3 41.3945 22.98 44.7945 22.98C48.0745 22.98 50.1945 25.16 49.8945 29.44H41.6945C41.8745 31.74 43.0145 32.82 44.8945 32.82C46.4745 32.82 47.4945 32.08 47.7345 30.8L49.7745 31.3C49.3545 33.34 47.4945 34.7 44.8745 34.7ZM44.7545 24.78C43.1745 24.78 42.0145 25.7 41.7345 27.76H47.5145C47.5545 25.96 46.5345 24.78 44.7545 24.78ZM56.0658 34.68C52.7458 34.68 50.6058 32.34 50.6058 28.82C50.6058 25.3 52.7858 22.98 56.0858 22.98C58.9058 22.98 60.6858 24.56 60.9658 26.9L58.7258 27.18C58.5658 25.68 57.5258 24.96 56.0458 24.96C54.1458 24.96 52.9858 26.4 52.9858 28.82C52.9858 31.24 54.1258 32.7 56.0458 32.7C57.5658 32.7 58.6058 31.88 58.7458 30.46L60.9858 30.74C60.7058 33.24 58.7458 34.68 56.0658 34.68ZM67.1022 34.7C63.7622 34.7 61.6222 32.36 61.6222 28.86C61.6222 25.3 63.7822 22.98 67.1022 22.98C70.4222 22.98 72.5622 25.3 72.5622 28.84C72.5622 32.38 70.4222 34.7 67.1022 34.7ZM67.1022 32.74C69.0622 32.74 70.2222 31.28 70.2222 28.82C70.2222 26.36 69.0622 24.94 67.1022 24.94C65.1222 24.94 63.9622 26.4 63.9622 28.84C63.9622 31.3 65.1222 32.74 67.1022 32.74ZM73.9022 34.5V23.18H76.0022L76.1622 24.92C76.9222 23.58 78.1822 22.98 79.5222 22.98C81.0622 22.98 82.3422 23.74 82.9222 25.22C83.6022 23.78 85.0022 22.98 86.5622 22.98C89.0022 22.98 90.3422 24.5 90.3422 26.84V34.5H88.0022V27.3C88.0022 25.88 87.3022 25.04 85.9822 25.04C84.3822 25.04 83.2822 26.14 83.2822 27.98V34.5H80.9422V27.44C80.9422 26.02 80.3222 25.04 78.9022 25.04C77.3022 25.04 76.2422 26.26 76.2422 27.9V34.5H73.9022ZM97.1823 34.7C93.9023 34.7 91.6823 32.56 91.6823 28.86C91.6823 25.3 93.7023 22.98 97.1023 22.98C100.382 22.98 102.502 25.16 102.202 29.44H94.0023C94.1823 31.74 95.3223 32.82 97.2023 32.82C98.7823 32.82 99.8023 32.08 100.042 30.8L102.082 31.3C101.662 33.34 99.8023 34.7 97.1823 34.7ZM97.0623 24.78C95.4823 24.78 94.3223 25.7 94.0423 27.76H99.8223C99.8623 25.96 98.8423 24.78 97.0623 24.78ZM110.327 34.7C107.947 34.7 106.587 33.42 106.587 31.52C106.587 29.34 108.207 28.4 110.167 28.04L112.567 27.6C113.687 27.4 113.947 26.98 113.947 26.3C113.947 25.38 113.387 24.76 111.767 24.76C110.167 24.76 109.147 25.4 109.167 26.74L106.987 26.5C107.007 24.26 108.927 22.98 111.787 22.98C114.727 22.98 116.267 24.16 116.267 26.44V31.94C116.267 32.7 116.607 32.86 116.967 32.86C117.187 32.86 117.267 32.84 117.307 32.82H117.427V34.46C117.127 34.6 116.567 34.66 116.287 34.66C115.107 34.66 114.307 34.12 114.247 32.98V32.66C113.667 33.9 112.127 34.7 110.327 34.7ZM110.947 32.9C112.487 32.9 113.627 32.2 113.987 31.02V28.88C113.687 29.04 113.207 29.14 112.487 29.3L110.867 29.62C109.347 29.92 108.967 30.62 108.967 31.34C108.967 32.4 109.787 32.9 110.947 32.9ZM126.813 34.68C123.493 34.68 121.353 32.34 121.353 28.82C121.353 25.3 123.533 22.98 126.833 22.98C129.653 22.98 131.433 24.56 131.713 26.9L129.473 27.18C129.313 25.68 128.273 24.96 126.793 24.96C124.893 24.96 123.733 26.4 123.733 28.82C123.733 31.24 124.873 32.7 126.793 32.7C128.313 32.7 129.353 31.88 129.493 30.46L131.733 30.74C131.453 33.24 129.493 34.68 126.813 34.68ZM132.872 34.5V18.7H135.192V34.5H132.872ZM137.23 21.38V18.74H139.43V21.38H137.23ZM137.15 34.5V23.18H139.49V34.5H137.15ZM146.621 34.7C143.341 34.7 141.121 32.56 141.121 28.86C141.121 25.3 143.141 22.98 146.541 22.98C149.821 22.98 151.941 25.16 151.641 29.44H143.441C143.621 31.74 144.761 32.82 146.641 32.82C148.221 32.82 149.241 32.08 149.481 30.8L151.521 31.3C151.101 33.34 149.241 34.7 146.621 34.7ZM146.501 24.78C144.921 24.78 143.761 25.7 143.481 27.76H149.261C149.301 25.96 148.281 24.78 146.501 24.78ZM152.835 34.5V23.18H154.975L155.095 24.84C156.035 23.56 157.195 22.98 158.735 22.98C161.015 22.98 162.615 24.28 162.615 26.92V34.5H160.295V27.2C160.295 25.86 159.515 25.04 158.015 25.04C156.475 25.04 155.195 26.08 155.175 27.78V34.5H152.835ZM167.282 34.64C165.662 34.64 164.862 33.92 164.862 32.56V24.92L163.362 24.94V23.18L164.862 23.2V20.08L167.142 19.88V23.2L168.982 23.18V24.94L167.142 24.92V31.66C167.142 32.48 167.322 32.7 168.062 32.7C168.462 32.7 168.762 32.66 168.982 32.6V34.44C168.382 34.58 167.782 34.64 167.282 34.64Z" fill="black" fill-opacity="0.8"/>
<circle cx="205" cy="27" r="17" fill="white"/>
<path d="M198.25 27.0001C198.25 27.1493 198.309 27.2923 198.415 27.3978C198.52 27.5033 198.663 27.5626 198.812 27.5626H209.83L205.727 31.6646C205.675 31.7169 205.633 31.7789 205.605 31.8472C205.577 31.9155 205.562 31.9887 205.562 32.0626C205.562 32.1365 205.577 32.2097 205.605 32.2779C205.633 32.3462 205.675 32.4083 205.727 32.4605C205.779 32.5128 205.841 32.5543 205.91 32.5825C205.978 32.6108 206.051 32.6254 206.125 32.6254C206.199 32.6254 206.272 32.6108 206.34 32.5825C206.409 32.5543 206.471 32.5128 206.523 32.4605L211.585 27.398C211.638 27.3458 211.679 27.2838 211.708 27.2155C211.736 27.1472 211.75 27.074 211.75 27.0001C211.75 26.9261 211.736 26.853 211.708 26.7847C211.679 26.7164 211.638 26.6543 211.585 26.6021L206.523 21.5396C206.417 21.4341 206.274 21.3748 206.125 21.3748C205.976 21.3748 205.833 21.4341 205.727 21.5396C205.621 21.6451 205.562 21.7883 205.562 21.9376C205.562 22.0868 205.621 22.23 205.727 22.3355L209.83 26.4376H198.812C198.663 26.4376 198.52 26.4968 198.415 26.6023C198.309 26.7078 198.25 26.8509 198.25 27.0001Z" fill="#2F2F2F"/>
</svg>
