<svg width="145" height="19" viewBox="0 0 145 19" fill="none" xmlns="http://www.w3.org/2000/svg">
<path d="M8.892 18.36C7.164 18.36 5.692 17.984 4.476 17.232C3.26 16.472 2.328 15.416 1.68 14.064C1.04 12.712 0.72 11.144 0.72 9.36C0.72 7.576 1.04 6.008 1.68 4.656C2.328 3.304 3.26 2.252 4.476 1.5C5.692 0.739999 7.164 0.36 8.892 0.36C10.884 0.36 12.532 0.863999 13.836 1.872C15.148 2.88 16.06 4.236 16.572 5.94L14.028 6.624C13.692 5.416 13.092 4.468 12.228 3.78C11.372 3.092 10.26 2.748 8.892 2.748C7.668 2.748 6.648 3.024 5.832 3.576C5.016 4.128 4.4 4.9 3.984 5.892C3.576 6.884 3.372 8.04 3.372 9.36C3.364 10.68 3.564 11.836 3.972 12.828C4.388 13.82 5.004 14.592 5.82 15.144C6.644 15.696 7.668 15.972 8.892 15.972C10.26 15.972 11.372 15.628 12.228 14.94C13.092 14.244 13.692 13.296 14.028 12.096L16.572 12.78C16.06 14.484 15.148 15.84 13.836 16.848C12.532 17.856 10.884 18.36 8.892 18.36ZM21.4312 18.36C20.4712 18.36 19.6672 18.184 19.0192 17.832C18.3712 17.472 17.8792 17 17.5432 16.416C17.2152 15.824 17.0512 15.176 17.0512 14.472C17.0512 13.816 17.1672 13.24 17.3992 12.744C17.6312 12.248 17.9752 11.828 18.4312 11.484C18.8872 11.132 19.4472 10.848 20.1112 10.632C20.6872 10.464 21.3392 10.316 22.0672 10.188C22.7952 10.06 23.5592 9.94 24.3592 9.828C25.1672 9.716 25.9672 9.604 26.7593 9.492L25.8472 9.996C25.8633 8.98 25.6473 8.228 25.1993 7.74C24.7593 7.244 23.9992 6.996 22.9192 6.996C22.2392 6.996 21.6152 7.156 21.0472 7.476C20.4792 7.788 20.0832 8.308 19.8592 9.036L17.5192 8.316C17.8392 7.204 18.4472 6.32 19.3432 5.664C20.2472 5.008 21.4472 4.68 22.9432 4.68C24.1032 4.68 25.1112 4.88 25.9672 5.28C26.8312 5.672 27.4633 6.296 27.8633 7.152C28.0713 7.576 28.1993 8.024 28.2472 8.496C28.2952 8.968 28.3193 9.476 28.3193 10.02V18H26.0993V15.036L26.5313 15.42C25.9952 16.412 25.3112 17.152 24.4793 17.64C23.6552 18.12 22.6392 18.36 21.4312 18.36ZM21.8752 16.308C22.5872 16.308 23.1992 16.184 23.7113 15.936C24.2233 15.68 24.6353 15.356 24.9472 14.964C25.2592 14.572 25.4632 14.164 25.5592 13.74C25.6953 13.356 25.7713 12.924 25.7872 12.444C25.8112 11.964 25.8233 11.58 25.8233 11.292L26.6393 11.592C25.8472 11.712 25.1272 11.82 24.4793 11.916C23.8312 12.012 23.2432 12.108 22.7153 12.204C22.1952 12.292 21.7312 12.4 21.3232 12.528C20.9792 12.648 20.6712 12.792 20.3992 12.96C20.1352 13.128 19.9232 13.332 19.7632 13.572C19.6112 13.812 19.5352 14.104 19.5352 14.448C19.5352 14.784 19.6192 15.096 19.7872 15.384C19.9552 15.664 20.2112 15.888 20.5552 16.056C20.8992 16.224 21.3392 16.308 21.8752 16.308ZM39.0913 18V11.628C39.0913 11.124 39.0473 10.608 38.9593 10.08C38.8793 9.544 38.7193 9.048 38.4793 8.592C38.2473 8.136 37.9153 7.768 37.4833 7.488C37.0593 7.208 36.5033 7.068 35.8153 7.068C35.3673 7.068 34.9433 7.144 34.5433 7.296C34.1433 7.44 33.7913 7.676 33.4873 8.004C33.1913 8.332 32.9553 8.764 32.7793 9.3C32.6113 9.836 32.5273 10.488 32.5273 11.256L30.9673 10.668C30.9673 9.492 31.1873 8.456 31.6273 7.56C32.0673 6.656 32.6993 5.952 33.5233 5.448C34.3473 4.944 35.3433 4.692 36.5113 4.692C37.4073 4.692 38.1593 4.836 38.7673 5.124C39.3753 5.412 39.8673 5.792 40.2433 6.264C40.6273 6.728 40.9193 7.236 41.1193 7.788C41.3193 8.34 41.4553 8.88 41.5273 9.408C41.5993 9.936 41.6353 10.4 41.6353 10.8V18H39.0913ZM29.9833 18V5.04H32.2273V8.784H32.5273V18H29.9833ZM46.8249 18L42.1209 5.04H44.6529L48.0969 14.856L51.5409 5.04H54.0729L49.3689 18H46.8249ZM57.7284 18.36C56.7684 18.36 55.9644 18.184 55.3164 17.832C54.6684 17.472 54.1764 17 53.8404 16.416C53.5124 15.824 53.3484 15.176 53.3484 14.472C53.3484 13.816 53.4644 13.24 53.6964 12.744C53.9284 12.248 54.2724 11.828 54.7284 11.484C55.1844 11.132 55.7444 10.848 56.4084 10.632C56.9844 10.464 57.6364 10.316 58.3644 10.188C59.0924 10.06 59.8564 9.94 60.6564 9.828C61.4644 9.716 62.2644 9.604 63.0564 9.492L62.1444 9.996C62.1604 8.98 61.9444 8.228 61.4964 7.74C61.0564 7.244 60.2964 6.996 59.2164 6.996C58.5364 6.996 57.9124 7.156 57.3444 7.476C56.7764 7.788 56.3804 8.308 56.1564 9.036L53.8164 8.316C54.1364 7.204 54.7444 6.32 55.6404 5.664C56.5444 5.008 57.7444 4.68 59.2404 4.68C60.4004 4.68 61.4084 4.88 62.2644 5.28C63.1284 5.672 63.7604 6.296 64.1604 7.152C64.3684 7.576 64.4964 8.024 64.5444 8.496C64.5924 8.968 64.6164 9.476 64.6164 10.02V18H62.3964V15.036L62.8284 15.42C62.2924 16.412 61.6084 17.152 60.7764 17.64C59.9524 18.12 58.9364 18.36 57.7284 18.36ZM58.1724 16.308C58.8844 16.308 59.4964 16.184 60.0084 15.936C60.5204 15.68 60.9324 15.356 61.2444 14.964C61.5564 14.572 61.7604 14.164 61.8564 13.74C61.9924 13.356 62.0684 12.924 62.0844 12.444C62.1084 11.964 62.1204 11.58 62.1204 11.292L62.9364 11.592C62.1444 11.712 61.4244 11.82 60.7764 11.916C60.1284 12.012 59.5404 12.108 59.0124 12.204C58.4924 12.292 58.0284 12.4 57.6204 12.528C57.2764 12.648 56.9684 12.792 56.6964 12.96C56.4324 13.128 56.2204 13.332 56.0604 13.572C55.9084 13.812 55.8324 14.104 55.8324 14.448C55.8324 14.784 55.9164 15.096 56.0844 15.384C56.2524 15.664 56.5084 15.888 56.8524 16.056C57.1964 16.224 57.6364 16.308 58.1724 16.308ZM71.2485 18.348C69.6725 18.348 68.3885 18 67.3965 17.304C66.4045 16.608 65.7965 15.628 65.5725 14.364L68.1405 13.968C68.3005 14.64 68.6685 15.172 69.2445 15.564C69.8285 15.948 70.5525 16.14 71.4165 16.14C72.2005 16.14 72.8125 15.98 73.2525 15.66C73.7005 15.34 73.9245 14.9 73.9245 14.34C73.9245 14.012 73.8445 13.748 73.6845 13.548C73.5325 13.34 73.2085 13.144 72.7125 12.96C72.2165 12.776 71.4605 12.548 70.4445 12.276C69.3325 11.988 68.4485 11.68 67.7925 11.352C67.1445 11.016 66.6805 10.628 66.4005 10.188C66.1285 9.74 65.9925 9.2 65.9925 8.568C65.9925 7.784 66.2005 7.1 66.6165 6.516C67.0325 5.932 67.6165 5.48 68.3685 5.16C69.1285 4.84 70.0165 4.68 71.0325 4.68C72.0245 4.68 72.9085 4.836 73.6845 5.148C74.4605 5.46 75.0885 5.904 75.5685 6.48C76.0485 7.048 76.3365 7.716 76.4325 8.484L73.8645 8.952C73.7765 8.328 73.4845 7.836 72.9885 7.476C72.4925 7.116 71.8485 6.92 71.0565 6.888C70.2965 6.856 69.6805 6.984 69.2085 7.272C68.7365 7.552 68.5005 7.94 68.5005 8.436C68.5005 8.724 68.5885 8.968 68.7645 9.168C68.9485 9.368 69.3005 9.56 69.8205 9.744C70.3405 9.928 71.1085 10.148 72.1245 10.404C73.2125 10.684 74.0765 10.996 74.7165 11.34C75.3565 11.676 75.8125 12.08 76.0845 12.552C76.3645 13.016 76.5045 13.58 76.5045 14.244C76.5045 15.524 76.0365 16.528 75.1005 17.256C74.1725 17.984 72.8885 18.348 71.2485 18.348ZM77.2397 17.988L77.2517 15.756L84.7757 9.012C85.3837 8.476 85.7957 7.964 86.0117 7.476C86.2357 6.988 86.3477 6.5 86.3477 6.012C86.3477 5.396 86.2117 4.844 85.9397 4.356C85.6677 3.86 85.2917 3.468 84.8117 3.18C84.3317 2.892 83.7797 2.748 83.1557 2.748C82.5157 2.748 81.9437 2.9 81.4397 3.204C80.9437 3.5 80.5557 3.896 80.2757 4.392C79.9957 4.888 79.8597 5.424 79.8677 6H77.2997C77.2997 4.88 77.5517 3.9 78.0557 3.06C78.5677 2.212 79.2677 1.552 80.1557 1.08C81.0437 0.599999 82.0597 0.36 83.2037 0.36C84.2917 0.36 85.2677 0.607999 86.1317 1.104C86.9957 1.592 87.6757 2.264 88.1717 3.12C88.6757 3.976 88.9277 4.952 88.9277 6.048C88.9277 6.84 88.8237 7.512 88.6157 8.064C88.4077 8.616 88.0957 9.128 87.6797 9.6C87.2637 10.072 86.7437 10.584 86.1197 11.136L80.3117 16.32L80.0357 15.6H88.9277V17.988H77.2397ZM97.5776 18.36C95.8496 18.36 94.3776 17.984 93.1616 17.232C91.9456 16.472 91.0136 15.416 90.3656 14.064C89.7256 12.712 89.4056 11.144 89.4056 9.36C89.4056 7.576 89.7256 6.008 90.3656 4.656C91.0136 3.304 91.9456 2.252 93.1616 1.5C94.3776 0.739999 95.8496 0.36 97.5776 0.36C99.5696 0.36 101.218 0.863999 102.522 1.872C103.834 2.88 104.746 4.236 105.258 5.94L102.714 6.624C102.378 5.416 101.778 4.468 100.914 3.78C100.058 3.092 98.9456 2.748 97.5776 2.748C96.3536 2.748 95.3336 3.024 94.5176 3.576C93.7016 4.128 93.0856 4.9 92.6696 5.892C92.2616 6.884 92.0576 8.04 92.0576 9.36C92.0496 10.68 92.2496 11.836 92.6576 12.828C93.0736 13.82 93.6896 14.592 94.5056 15.144C95.3296 15.696 96.3536 15.972 97.5776 15.972C98.9456 15.972 100.058 15.628 100.914 14.94C101.778 14.244 102.378 13.296 102.714 12.096L105.258 12.78C104.746 14.484 103.834 15.84 102.522 16.848C101.218 17.856 99.5696 18.36 97.5776 18.36ZM112.085 18.36C110.789 18.36 109.665 18.068 108.713 17.484C107.761 16.9 107.025 16.096 106.505 15.072C105.993 14.04 105.737 12.852 105.737 11.508C105.737 10.156 106.001 8.968 106.529 7.944C107.057 6.912 107.797 6.112 108.749 5.544C109.701 4.968 110.813 4.68 112.085 4.68C113.381 4.68 114.505 4.972 115.457 5.556C116.409 6.14 117.145 6.944 117.665 7.968C118.185 8.992 118.445 10.172 118.445 11.508C118.445 12.86 118.181 14.052 117.653 15.084C117.133 16.108 116.397 16.912 115.445 17.496C114.493 18.072 113.373 18.36 112.085 18.36ZM112.085 15.996C113.325 15.996 114.249 15.58 114.857 14.748C115.473 13.908 115.781 12.828 115.781 11.508C115.781 10.156 115.469 9.076 114.845 8.268C114.229 7.452 113.309 7.044 112.085 7.044C111.245 7.044 110.553 7.236 110.009 7.62C109.465 7.996 109.061 8.52 108.797 9.192C108.533 9.856 108.401 10.628 108.401 11.508C108.401 12.868 108.713 13.956 109.337 14.772C109.961 15.588 110.877 15.996 112.085 15.996ZM124.79 18.36C123.582 18.36 122.538 18.06 121.658 17.46C120.786 16.86 120.11 16.044 119.63 15.012C119.158 13.972 118.922 12.804 118.922 11.508C118.922 10.204 119.162 9.04 119.642 8.016C120.122 6.984 120.802 6.172 121.682 5.58C122.57 4.98 123.622 4.68 124.838 4.68C126.062 4.68 127.09 4.98 127.922 5.58C128.762 6.172 129.394 6.984 129.818 8.016C130.25 9.048 130.466 10.212 130.466 11.508C130.466 12.804 130.25 13.968 129.818 15C129.386 16.032 128.75 16.852 127.91 17.46C127.07 18.06 126.03 18.36 124.79 18.36ZM125.138 16.092C125.962 16.092 126.634 15.896 127.154 15.504C127.674 15.112 128.054 14.572 128.294 13.884C128.534 13.196 128.654 12.404 128.654 11.508C128.654 10.612 128.53 9.82 128.282 9.132C128.042 8.444 127.666 7.908 127.154 7.524C126.65 7.14 126.006 6.948 125.222 6.948C124.39 6.948 123.706 7.152 123.17 7.56C122.634 7.968 122.234 8.516 121.97 9.204C121.714 9.892 121.586 10.66 121.586 11.508C121.586 12.364 121.714 13.14 121.97 13.836C122.234 14.524 122.626 15.072 123.146 15.48C123.674 15.888 124.338 16.092 125.138 16.092ZM128.654 18V8.676H128.366V0.719999H130.886V18H128.654ZM138.551 18.36C137.263 18.36 136.131 18.08 135.155 17.52C134.187 16.952 133.431 16.164 132.887 15.156C132.351 14.14 132.083 12.964 132.083 11.628C132.083 10.212 132.347 8.984 132.875 7.944C133.411 6.904 134.155 6.1 135.107 5.532C136.059 4.964 137.167 4.68 138.431 4.68C139.751 4.68 140.875 4.988 141.803 5.604C142.731 6.212 143.423 7.08 143.879 8.208C144.343 9.336 144.527 10.676 144.431 12.228H141.923V11.316C141.907 9.812 141.619 8.7 141.059 7.98C140.507 7.26 139.663 6.9 138.527 6.9C137.271 6.9 136.327 7.296 135.695 8.088C135.063 8.88 134.747 10.024 134.747 11.52C134.747 12.944 135.063 14.048 135.695 14.832C136.327 15.608 137.239 15.996 138.431 15.996C139.215 15.996 139.891 15.82 140.459 15.468C141.035 15.108 141.483 14.596 141.803 13.932L144.263 14.712C143.759 15.872 142.995 16.772 141.971 17.412C140.947 18.044 139.807 18.36 138.551 18.36ZM133.931 12.228V10.272H143.183V12.228H133.931Z" fill="#2F2F2F"/>
</svg>
