<svg width="401" height="26" viewBox="0 0 401 26" fill="none" xmlns="http://www.w3.org/2000/svg">
<path d="M2.551 22.399L0.324 20.189L6.359 14.29L0.324 8.391L2.551 6.181L10.643 14.29L2.551 22.399ZM24.392 0.0269983C25.9673 0.0269983 27.3897 0.406665 28.659 1.166C29.9283 1.914 30.937 2.94533 31.685 4.26C32.433 5.57467 32.807 7.07633 32.807 8.765V16.551C32.807 18.3417 32.433 19.9113 31.685 21.26C30.9483 22.5973 29.917 23.64 28.591 24.388C27.2763 25.136 25.7577 25.51 24.035 25.51C22.743 25.51 21.5303 25.2663 20.397 24.779C19.2637 24.2917 18.2777 23.5663 17.439 22.603L20.057 20.172C20.5217 20.7727 21.1053 21.2543 21.808 21.617C22.5107 21.9797 23.253 22.161 24.035 22.161C25.0437 22.161 25.9333 21.9173 26.704 21.43C27.486 20.9427 28.0923 20.308 28.523 19.526C28.9537 18.744 29.169 17.9053 29.169 17.01V12.522L29.883 13.304C29.1803 14.222 28.3077 14.9473 27.265 15.48C26.2223 16.0127 25.106 16.279 23.916 16.279C22.386 16.279 21.026 15.9277 19.836 15.225C18.646 14.5223 17.7053 13.5647 17.014 12.352C16.3227 11.1393 15.977 9.768 15.977 8.238C15.977 6.708 16.3623 5.32533 17.133 4.09C17.9037 2.85467 18.9237 1.86867 20.193 1.132C21.4623 0.395332 22.862 0.0269983 24.392 0.0269983ZM24.392 3.461C23.508 3.461 22.6977 3.67633 21.961 4.107C21.2357 4.52633 20.6577 5.09867 20.227 5.824C19.7963 6.54933 19.581 7.354 19.581 8.238C19.581 9.122 19.7963 9.93233 20.227 10.669C20.6577 11.3943 21.2357 11.9723 21.961 12.403C22.6863 12.8337 23.491 13.049 24.375 13.049C25.259 13.049 26.0637 12.8337 26.789 12.403C27.5143 11.9723 28.0923 11.3943 28.523 10.669C28.9537 9.93233 29.169 9.122 29.169 8.238C29.169 7.36533 28.9537 6.56633 28.523 5.841C28.1037 5.11566 27.5313 4.53766 26.806 4.107C26.0807 3.67633 25.276 3.461 24.392 3.461ZM43.4522 25.51C42.1942 25.51 41.0212 25.255 39.9332 24.745C38.8565 24.2237 37.9329 23.5097 37.1622 22.603C36.3915 21.685 35.8419 20.631 35.5132 19.441L38.9302 18.523C39.1229 19.2483 39.4515 19.8773 39.9162 20.41C40.3922 20.9427 40.9475 21.3563 41.5822 21.651C42.2169 21.9343 42.8742 22.076 43.5542 22.076C44.4495 22.076 45.2599 21.8607 45.9852 21.43C46.7219 20.9993 47.2999 20.4213 47.7192 19.696C48.1499 18.9707 48.3652 18.1717 48.3652 17.299C48.3652 16.4037 48.1442 15.5933 47.7022 14.868C47.2715 14.1427 46.6879 13.5703 45.9512 13.151C45.2259 12.7203 44.4269 12.505 43.5542 12.505C42.5569 12.505 41.7125 12.7033 41.0212 13.1C40.3299 13.4967 39.7915 13.9557 39.4062 14.477L36.3122 13.389L37.0602 0.519999H50.2692V3.869H38.8792L40.3242 2.526L39.7292 12.165L39.0322 11.264C39.6782 10.618 40.4489 10.125 41.3442 9.785C42.2395 9.445 43.1292 9.275 44.0132 9.275C45.5319 9.275 46.8862 9.62633 48.0762 10.329C49.2775 11.0317 50.2239 11.9893 50.9152 13.202C51.6065 14.4033 51.9522 15.769 51.9522 17.299C51.9522 18.8177 51.5612 20.2003 50.7792 21.447C49.9972 22.6823 48.9602 23.6683 47.6682 24.405C46.3762 25.1417 44.9709 25.51 43.4522 25.51ZM57.7155 25L55.3355 22.62L77.4525 0.519999L79.8325 2.917L57.7155 25ZM74.7325 25.51C73.6105 25.51 72.5848 25.238 71.6555 24.694C70.7375 24.1387 70.0008 23.402 69.4455 22.484C68.8901 21.5547 68.6125 20.5233 68.6125 19.39C68.6125 18.2793 68.8958 17.2593 69.4625 16.33C70.0291 15.4007 70.7771 14.6583 71.7065 14.103C72.6358 13.5477 73.6445 13.27 74.7325 13.27C75.8545 13.27 76.8801 13.5477 77.8095 14.103C78.7388 14.647 79.4755 15.3837 80.0195 16.313C80.5748 17.231 80.8525 18.2567 80.8525 19.39C80.8525 20.5233 80.5748 21.5547 80.0195 22.484C79.4755 23.402 78.7388 24.1387 77.8095 24.694C76.8801 25.238 75.8545 25.51 74.7325 25.51ZM74.7325 22.433C75.2878 22.433 75.7921 22.297 76.2455 22.025C76.7101 21.7417 77.0785 21.3677 77.3505 20.903C77.6338 20.4383 77.7755 19.934 77.7755 19.39C77.7755 18.846 77.6338 18.3417 77.3505 17.877C77.0785 17.4123 76.7101 17.044 76.2455 16.772C75.7921 16.4887 75.2878 16.347 74.7325 16.347C74.1885 16.347 73.6841 16.4887 73.2195 16.772C72.7661 17.044 72.3978 17.4123 72.1145 17.877C71.8425 18.3417 71.7065 18.846 71.7065 19.39C71.7065 19.934 71.8425 20.4383 72.1145 20.903C72.3978 21.3677 72.7661 21.7417 73.2195 22.025C73.6841 22.297 74.1885 22.433 74.7325 22.433ZM60.4355 12.25C59.3135 12.25 58.2878 11.978 57.3585 11.434C56.4291 10.8787 55.6868 10.142 55.1315 9.224C54.5875 8.29467 54.3155 7.26333 54.3155 6.13C54.3155 5.01933 54.5988 3.99933 55.1655 3.07C55.7321 2.14067 56.4801 1.39833 57.4095 0.842998C58.3388 0.287666 59.3475 0.00999951 60.4355 0.00999951C61.5575 0.00999951 62.5775 0.287666 63.4955 0.842998C64.4248 1.387 65.1671 2.12367 65.7225 3.053C66.2778 3.971 66.5555 4.99667 66.5555 6.13C66.5555 7.26333 66.2778 8.29467 65.7225 9.224C65.1671 10.142 64.4248 10.8787 63.4955 11.434C62.5775 11.978 61.5575 12.25 60.4355 12.25ZM60.4355 9.173C60.9795 9.173 61.4838 9.037 61.9485 8.765C62.4131 8.48167 62.7815 8.10767 63.0535 7.643C63.3368 7.17833 63.4785 6.674 63.4785 6.13C63.4785 5.586 63.3368 5.08167 63.0535 4.617C62.7815 4.15233 62.4131 3.784 61.9485 3.512C61.4838 3.22867 60.9795 3.087 60.4355 3.087C59.8915 3.087 59.3871 3.22867 58.9225 3.512C58.4691 3.784 58.1008 4.15233 57.8175 4.617C57.5341 5.08167 57.3925 5.586 57.3925 6.13C57.3925 6.674 57.5341 7.17833 57.8175 7.643C58.1008 8.10767 58.4691 8.48167 58.9225 8.765C59.3758 9.037 59.8801 9.173 60.4355 9.173ZM95.5434 0.519999H99.1304L92.6024 25H89.0154L95.5434 0.519999Z" fill="#82FF1F"/>
<path d="M115.507 25.51C113.626 25.51 112.028 25.0907 110.713 24.252C109.398 23.4133 108.39 22.263 107.687 20.801C106.996 19.339 106.644 17.6787 106.633 15.82C106.644 13.9273 107.007 12.2557 107.721 10.805C108.435 9.343 109.455 8.19833 110.781 7.371C112.107 6.54367 113.699 6.13 115.558 6.13C117.564 6.13 119.275 6.62867 120.692 7.626C122.12 8.62333 123.061 9.989 123.514 11.723L119.978 12.743C119.627 11.7117 119.049 10.9127 118.244 10.346C117.451 9.768 116.538 9.479 115.507 9.479C114.34 9.479 113.382 9.75667 112.634 10.312C111.886 10.856 111.331 11.604 110.968 12.556C110.605 13.508 110.418 14.596 110.407 15.82C110.418 17.7127 110.849 19.2427 111.699 20.41C112.56 21.5773 113.83 22.161 115.507 22.161C116.652 22.161 117.575 21.9003 118.278 21.379C118.992 20.8463 119.536 20.087 119.91 19.101L123.514 19.951C122.913 21.7417 121.922 23.1187 120.539 24.082C119.156 25.034 117.479 25.51 115.507 25.51ZM125.459 25V0.00999951H129.012V25H125.459ZM133.097 3.631V0.179999H136.65V3.631H133.097ZM133.097 25V6.64H136.65V25H133.097ZM148.538 25.51C146.714 25.51 145.11 25.1133 143.727 24.32C142.356 23.5153 141.285 22.399 140.514 20.971C139.755 19.5317 139.375 17.8657 139.375 15.973C139.375 13.967 139.749 12.2273 140.497 10.754C141.257 9.28067 142.311 8.14167 143.659 7.337C145.008 6.53233 146.578 6.13 148.368 6.13C150.238 6.13 151.831 6.56633 153.145 7.439C154.46 8.30033 155.44 9.53 156.086 11.128C156.744 12.726 157.004 14.6243 156.868 16.823H153.315V15.531C153.293 13.4003 152.885 11.825 152.091 10.805C151.309 9.785 150.114 9.275 148.504 9.275C146.725 9.275 145.388 9.836 144.492 10.958C143.597 12.08 143.149 13.7007 143.149 15.82C143.149 17.8373 143.597 19.4013 144.492 20.512C145.388 21.6113 146.68 22.161 148.368 22.161C149.479 22.161 150.437 21.9117 151.241 21.413C152.057 20.903 152.692 20.1777 153.145 19.237L156.63 20.342C155.916 21.9853 154.834 23.2603 153.383 24.167C151.933 25.0623 150.318 25.51 148.538 25.51ZM141.993 16.823V14.052H155.1V16.823H141.993ZM171.71 25V15.973C171.71 15.259 171.648 14.528 171.523 13.78C171.41 13.0207 171.183 12.318 170.843 11.672C170.515 11.026 170.044 10.5047 169.432 10.108C168.832 9.71133 168.044 9.513 167.069 9.513C166.435 9.513 165.834 9.62067 165.267 9.836C164.701 10.04 164.202 10.3743 163.771 10.839C163.352 11.3037 163.018 11.9157 162.768 12.675C162.53 13.4343 162.411 14.358 162.411 15.446L160.201 14.613C160.201 12.947 160.513 11.4793 161.136 10.21C161.76 8.92933 162.655 7.932 163.822 7.218C164.99 6.504 166.401 6.147 168.055 6.147C169.325 6.147 170.39 6.351 171.251 6.759C172.113 7.167 172.81 7.70533 173.342 8.374C173.886 9.03133 174.3 9.751 174.583 10.533C174.867 11.315 175.059 12.08 175.161 12.828C175.263 13.576 175.314 14.2333 175.314 14.8V25H171.71ZM158.807 25V6.64H161.986V11.944H162.411V25H158.807ZM188.888 25C187.732 25.2267 186.599 25.323 185.488 25.289C184.378 25.255 183.386 25.0397 182.513 24.643C181.641 24.2463 180.983 23.623 180.541 22.773C180.145 22.0137 179.929 21.243 179.895 20.461C179.873 19.6677 179.861 18.7723 179.861 17.775V1.54H183.431V17.605C183.431 18.3417 183.437 18.982 183.448 19.526C183.471 20.07 183.59 20.529 183.805 20.903C184.213 21.6057 184.859 22.008 185.743 22.11C186.639 22.2007 187.687 22.161 188.888 21.991V25ZM176.342 9.496V6.64H188.888V9.496H176.342ZM196.846 25V6.64H200.008V11.094L199.566 10.516C199.793 9.92667 200.087 9.38833 200.45 8.901C200.813 8.40233 201.232 7.99433 201.708 7.677C202.173 7.337 202.688 7.07633 203.255 6.895C203.833 6.70233 204.422 6.589 205.023 6.555C205.624 6.50967 206.202 6.538 206.757 6.64V9.972C206.156 9.81333 205.488 9.768 204.751 9.836C204.026 9.904 203.357 10.1363 202.745 10.533C202.167 10.907 201.708 11.3603 201.368 11.893C201.039 12.4257 200.801 13.0207 200.654 13.678C200.507 14.324 200.433 15.0097 200.433 15.735V25H196.846ZM216.445 25.51C214.621 25.51 213.017 25.1133 211.634 24.32C210.263 23.5153 209.192 22.399 208.421 20.971C207.662 19.5317 207.282 17.8657 207.282 15.973C207.282 13.967 207.656 12.2273 208.404 10.754C209.164 9.28067 210.218 8.14167 211.566 7.337C212.915 6.53233 214.485 6.13 216.275 6.13C218.145 6.13 219.738 6.56633 221.052 7.439C222.367 8.30033 223.347 9.53 223.993 11.128C224.651 12.726 224.911 14.6243 224.775 16.823H221.222V15.531C221.2 13.4003 220.792 11.825 219.998 10.805C219.216 9.785 218.021 9.275 216.411 9.275C214.632 9.275 213.295 9.836 212.399 10.958C211.504 12.08 211.056 13.7007 211.056 15.82C211.056 17.8373 211.504 19.4013 212.399 20.512C213.295 21.6113 214.587 22.161 216.275 22.161C217.386 22.161 218.344 21.9117 219.148 21.413C219.964 20.903 220.599 20.1777 221.052 19.237L224.537 20.342C223.823 21.9853 222.741 23.2603 221.29 24.167C219.84 25.0623 218.225 25.51 216.445 25.51ZM209.9 16.823V14.052H223.007V16.823H209.9ZM237.735 25C236.579 25.2267 235.446 25.323 234.335 25.289C233.225 25.255 232.233 25.0397 231.36 24.643C230.488 24.2463 229.83 23.623 229.388 22.773C228.992 22.0137 228.776 21.243 228.742 20.461C228.72 19.6677 228.708 18.7723 228.708 17.775V1.54H232.278V17.605C232.278 18.3417 232.284 18.982 232.295 19.526C232.318 20.07 232.437 20.529 232.652 20.903C233.06 21.6057 233.706 22.008 234.59 22.11C235.486 22.2007 236.534 22.161 237.735 21.991V25ZM225.189 9.496V6.64H237.735V9.496H225.189ZM247.559 25.51C245.735 25.51 244.131 25.1133 242.748 24.32C241.377 23.5153 240.306 22.399 239.535 20.971C238.776 19.5317 238.396 17.8657 238.396 15.973C238.396 13.967 238.77 12.2273 239.518 10.754C240.278 9.28067 241.332 8.14167 242.68 7.337C244.029 6.53233 245.599 6.13 247.389 6.13C249.259 6.13 250.852 6.56633 252.166 7.439C253.481 8.30033 254.461 9.53 255.107 11.128C255.765 12.726 256.025 14.6243 255.889 16.823H252.336V15.531C252.314 13.4003 251.906 11.825 251.112 10.805C250.33 9.785 249.135 9.275 247.525 9.275C245.746 9.275 244.409 9.836 243.513 10.958C242.618 12.08 242.17 13.7007 242.17 15.82C242.17 17.8373 242.618 19.4013 243.513 20.512C244.409 21.6113 245.701 22.161 247.389 22.161C248.5 22.161 249.458 21.9117 250.262 21.413C251.078 20.903 251.713 20.1777 252.166 19.237L255.651 20.342C254.937 21.9853 253.855 23.2603 252.404 24.167C250.954 25.0623 249.339 25.51 247.559 25.51ZM241.014 16.823V14.052H254.121V16.823H241.014ZM270.731 25V15.973C270.731 15.259 270.669 14.528 270.544 13.78C270.431 13.0207 270.204 12.318 269.864 11.672C269.536 11.026 269.065 10.5047 268.453 10.108C267.853 9.71133 267.065 9.513 266.09 9.513C265.456 9.513 264.855 9.62067 264.288 9.836C263.722 10.04 263.223 10.3743 262.792 10.839C262.373 11.3037 262.039 11.9157 261.789 12.675C261.551 13.4343 261.432 14.358 261.432 15.446L259.222 14.613C259.222 12.947 259.534 11.4793 260.157 10.21C260.781 8.92933 261.676 7.932 262.843 7.218C264.011 6.504 265.422 6.147 267.076 6.147C268.346 6.147 269.411 6.351 270.272 6.759C271.134 7.167 271.831 7.70533 272.363 8.374C272.907 9.03133 273.321 9.751 273.604 10.533C273.888 11.315 274.08 12.08 274.182 12.828C274.284 13.576 274.335 14.2333 274.335 14.8V25H270.731ZM257.828 25V6.64H261.007V11.944H261.432V25H257.828ZM287.909 25C286.753 25.2267 285.62 25.323 284.509 25.289C283.399 25.255 282.407 25.0397 281.534 24.643C280.662 24.2463 280.004 23.623 279.562 22.773C279.166 22.0137 278.95 21.243 278.916 20.461C278.894 19.6677 278.882 18.7723 278.882 17.775V1.54H282.452V17.605C282.452 18.3417 282.458 18.982 282.469 19.526C282.492 20.07 282.611 20.529 282.826 20.903C283.234 21.6057 283.88 22.008 284.764 22.11C285.66 22.2007 286.708 22.161 287.909 21.991V25ZM275.363 9.496V6.64H287.909V9.496H275.363ZM290.76 3.631V0.179999H294.313V3.631H290.76ZM290.76 25V6.64H294.313V25H290.76ZM306.031 25.51C304.195 25.51 302.603 25.0963 301.254 24.269C299.906 23.4417 298.863 22.3027 298.126 20.852C297.401 19.39 297.038 17.707 297.038 15.803C297.038 13.8877 297.412 12.2047 298.16 10.754C298.908 9.292 299.957 8.15867 301.305 7.354C302.654 6.538 304.229 6.13 306.031 6.13C307.867 6.13 309.46 6.54367 310.808 7.371C312.157 8.19833 313.2 9.33733 313.936 10.788C314.673 12.2387 315.041 13.9103 315.041 15.803C315.041 17.7183 314.667 19.407 313.919 20.869C313.183 22.3197 312.14 23.4587 310.791 24.286C309.443 25.102 307.856 25.51 306.031 25.51ZM306.031 22.161C307.788 22.161 309.097 21.5717 309.958 20.393C310.831 19.203 311.267 17.673 311.267 15.803C311.267 13.8877 310.825 12.3577 309.941 11.213C309.069 10.057 307.765 9.479 306.031 9.479C304.841 9.479 303.861 9.751 303.09 10.295C302.32 10.8277 301.747 11.57 301.373 12.522C300.999 13.4627 300.812 14.5563 300.812 15.803C300.812 17.7297 301.254 19.271 302.138 20.427C303.022 21.583 304.32 22.161 306.031 22.161ZM330.303 25V15.973C330.303 15.259 330.241 14.528 330.116 13.78C330.003 13.0207 329.776 12.318 329.436 11.672C329.107 11.026 328.637 10.5047 328.025 10.108C327.424 9.71133 326.637 9.513 325.662 9.513C325.027 9.513 324.427 9.62067 323.86 9.836C323.293 10.04 322.795 10.3743 322.364 10.839C321.945 11.3037 321.61 11.9157 321.361 12.675C321.123 13.4343 321.004 14.358 321.004 15.446L318.794 14.613C318.794 12.947 319.106 11.4793 319.729 10.21C320.352 8.92933 321.248 7.932 322.415 7.218C323.582 6.504 324.993 6.147 326.648 6.147C327.917 6.147 328.983 6.351 329.844 6.759C330.705 7.167 331.402 7.70533 331.935 8.374C332.479 9.03133 332.893 9.751 333.176 10.533C333.459 11.315 333.652 12.08 333.754 12.828C333.856 13.576 333.907 14.2333 333.907 14.8V25H330.303ZM317.4 25V6.64H320.579V11.944H321.004V25H317.4ZM342.422 25V6.64H345.584V11.094L345.142 10.516C345.368 9.92667 345.663 9.38833 346.026 8.901C346.388 8.40233 346.808 7.99433 347.284 7.677C347.748 7.337 348.264 7.07633 348.831 6.895C349.409 6.70233 349.998 6.589 350.599 6.555C351.199 6.50967 351.777 6.538 352.333 6.64V9.972C351.732 9.81333 351.063 9.768 350.327 9.836C349.601 9.904 348.933 10.1363 348.321 10.533C347.743 10.907 347.284 11.3603 346.944 11.893C346.615 12.4257 346.377 13.0207 346.23 13.678C346.082 14.324 346.009 15.0097 346.009 15.735V25H342.422ZM358.864 25.51C357.504 25.51 356.365 25.2607 355.447 24.762C354.529 24.252 353.832 23.5833 353.356 22.756C352.891 21.9173 352.659 20.9993 352.659 20.002C352.659 19.0727 352.823 18.2567 353.152 17.554C353.48 16.8513 353.968 16.2563 354.614 15.769C355.26 15.2703 356.053 14.868 356.994 14.562C357.81 14.324 358.733 14.1143 359.765 13.933C360.796 13.7517 361.878 13.5817 363.012 13.423C364.156 13.2643 365.29 13.1057 366.412 12.947L365.12 13.661C365.142 12.2217 364.836 11.1563 364.202 10.465C363.578 9.76233 362.502 9.411 360.972 9.411C360.008 9.411 359.124 9.63767 358.32 10.091C357.515 10.533 356.954 11.2697 356.637 12.301L353.322 11.281C353.775 9.70567 354.636 8.45333 355.906 7.524C357.186 6.59467 358.886 6.13 361.006 6.13C362.649 6.13 364.077 6.41333 365.29 6.98C366.514 7.53533 367.409 8.41933 367.976 9.632C368.27 10.2327 368.452 10.8673 368.52 11.536C368.588 12.2047 368.622 12.9243 368.622 13.695V25H365.477V20.801L366.089 21.345C365.329 22.7503 364.36 23.7987 363.182 24.49C362.014 25.17 360.575 25.51 358.864 25.51ZM359.493 22.603C360.501 22.603 361.368 22.4273 362.094 22.076C362.819 21.7133 363.403 21.2543 363.845 20.699C364.287 20.1437 364.576 19.5657 364.712 18.965C364.904 18.421 365.012 17.809 365.035 17.129C365.069 16.449 365.086 15.905 365.086 15.497L366.242 15.922C365.12 16.092 364.1 16.245 363.182 16.381C362.264 16.517 361.431 16.653 360.683 16.789C359.946 16.9137 359.289 17.0667 358.711 17.248C358.223 17.418 357.787 17.622 357.402 17.86C357.028 18.098 356.727 18.387 356.501 18.727C356.285 19.067 356.178 19.4807 356.178 19.968C356.178 20.444 356.297 20.886 356.535 21.294C356.773 21.6907 357.135 22.008 357.623 22.246C358.11 22.484 358.733 22.603 359.493 22.603ZM382.182 25C381.026 25.2267 379.893 25.323 378.782 25.289C377.672 25.255 376.68 25.0397 375.807 24.643C374.935 24.2463 374.277 23.623 373.835 22.773C373.439 22.0137 373.223 21.243 373.189 20.461C373.167 19.6677 373.155 18.7723 373.155 17.775V1.54H376.725V17.605C376.725 18.3417 376.731 18.982 376.742 19.526C376.765 20.07 376.884 20.529 377.099 20.903C377.507 21.6057 378.153 22.008 379.037 22.11C379.933 22.2007 380.981 22.161 382.182 21.991V25ZM369.636 9.496V6.64H382.182V9.496H369.636ZM392.006 25.51C390.181 25.51 388.578 25.1133 387.195 24.32C385.824 23.5153 384.753 22.399 383.982 20.971C383.223 19.5317 382.843 17.8657 382.843 15.973C382.843 13.967 383.217 12.2273 383.965 10.754C384.724 9.28067 385.778 8.14167 387.127 7.337C388.476 6.53233 390.045 6.13 391.836 6.13C393.706 6.13 395.298 6.56633 396.613 7.439C397.928 8.30033 398.908 9.53 399.554 11.128C400.211 12.726 400.472 14.6243 400.336 16.823H396.783V15.531C396.76 13.4003 396.352 11.825 395.559 10.805C394.777 9.785 393.581 9.275 391.972 9.275C390.193 9.275 388.855 9.836 387.96 10.958C387.065 12.08 386.617 13.7007 386.617 15.82C386.617 17.8373 387.065 19.4013 387.96 20.512C388.855 21.6113 390.147 22.161 391.836 22.161C392.947 22.161 393.904 21.9117 394.709 21.413C395.525 20.903 396.16 20.1777 396.613 19.237L400.098 20.342C399.384 21.9853 398.302 23.2603 396.851 24.167C395.4 25.0623 393.785 25.51 392.006 25.51ZM385.461 16.823V14.052H398.568V16.823H385.461Z" fill="white"/>
</svg>
