<svg width="1320" height="384" viewBox="0 0 1320 384" fill="none" xmlns="http://www.w3.org/2000/svg">
<rect width="424" height="180" rx="14" fill="white"/>
<circle cx="368" cy="124" r="26" fill="#82FF1F"/>
<g opacity="0.8">
<path d="M376.133 131.848L370.264 122.625L376.055 116.254C376.186 116.107 376.253 115.913 376.243 115.716C376.232 115.519 376.144 115.334 375.998 115.202C375.852 115.069 375.66 114.999 375.463 115.007C375.265 115.016 375.079 115.101 374.945 115.246L369.429 121.313L365.633 115.348C365.565 115.241 365.472 115.154 365.361 115.093C365.25 115.032 365.126 115 365 115H360.5C360.366 115 360.234 115.036 360.118 115.104C360.002 115.173 359.907 115.271 359.842 115.389C359.777 115.507 359.746 115.64 359.75 115.775C359.754 115.909 359.795 116.04 359.867 116.153L365.736 125.375L359.945 131.75C359.877 131.823 359.825 131.908 359.79 132.001C359.756 132.094 359.74 132.193 359.745 132.293C359.749 132.392 359.773 132.489 359.815 132.579C359.857 132.669 359.916 132.75 359.99 132.816C360.063 132.883 360.149 132.935 360.242 132.968C360.336 133.001 360.435 133.016 360.534 133.01C360.633 133.005 360.73 132.98 360.82 132.937C360.909 132.894 360.989 132.833 361.055 132.759L366.571 126.692L370.367 132.657C370.435 132.763 370.529 132.849 370.64 132.909C370.75 132.969 370.874 133 371 133H375.5C375.634 133 375.766 132.964 375.882 132.895C375.997 132.827 376.092 132.729 376.157 132.611C376.222 132.493 376.254 132.36 376.249 132.226C376.245 132.092 376.205 131.961 376.133 131.848ZM371.412 131.5L361.866 116.5H364.585L374.134 131.5H371.412Z" fill="black"/>
</g>
<path d="M44.99 54V41.57H40.2V39.6H51.87V41.57H47.08V54H44.99ZM53.7789 54L50.4789 43.19L52.5489 43.2L54.8089 50.61L57.0889 43.2H58.8889L61.1689 50.61L63.4289 43.2H65.4889L62.1889 54H60.5089L57.9889 46.18L55.4589 54H53.7789ZM66.6797 41.43V39.4H68.7697V41.43H66.6797ZM66.6797 54V43.2H68.7697V54H66.6797ZM77.1527 54C76.4727 54.1333 75.806 54.19 75.1527 54.17C74.4993 54.15 73.916 54.0233 73.4027 53.79C72.8893 53.5567 72.5027 53.19 72.2427 52.69C72.0093 52.2433 71.8827 51.79 71.8627 51.33C71.8493 50.8633 71.8427 50.3367 71.8427 49.75V40.2H73.9427V49.65C73.9427 50.0833 73.946 50.46 73.9527 50.78C73.966 51.1 74.036 51.37 74.1627 51.59C74.4027 52.0033 74.7827 52.24 75.3027 52.3C75.8293 52.3533 76.446 52.33 77.1527 52.23V54ZM69.7727 44.88V43.2H77.1527V44.88H69.7727ZM84.4027 54C83.7227 54.1333 83.056 54.19 82.4027 54.17C81.7493 54.15 81.166 54.0233 80.6527 53.79C80.1393 53.5567 79.7527 53.19 79.4927 52.69C79.2593 52.2433 79.1327 51.79 79.1127 51.33C79.0993 50.8633 79.0927 50.3367 79.0927 49.75V40.2H81.1927V49.65C81.1927 50.0833 81.196 50.46 81.2027 50.78C81.216 51.1 81.286 51.37 81.4127 51.59C81.6527 52.0033 82.0327 52.24 82.5527 52.3C83.0793 52.3533 83.696 52.33 84.4027 52.23V54ZM77.0227 44.88V43.2H84.4027V44.88H77.0227ZM90.6462 54.3C89.5729 54.3 88.6296 54.0667 87.8162 53.6C87.0096 53.1267 86.3796 52.47 85.9262 51.63C85.4796 50.7833 85.2562 49.8033 85.2562 48.69C85.2562 47.51 85.4762 46.4867 85.9162 45.62C86.3629 44.7533 86.9829 44.0833 87.7762 43.61C88.5696 43.1367 89.4929 42.9 90.5462 42.9C91.6462 42.9 92.5829 43.1567 93.3562 43.67C94.1296 44.1767 94.7062 44.9 95.0863 45.84C95.4729 46.78 95.6262 47.8967 95.5463 49.19H93.4562V48.43C93.4429 47.1767 93.2029 46.25 92.7362 45.65C92.2762 45.05 91.5729 44.75 90.6262 44.75C89.5796 44.75 88.7929 45.08 88.2662 45.74C87.7396 46.4 87.4762 47.3533 87.4762 48.6C87.4762 49.7867 87.7396 50.7067 88.2662 51.36C88.7929 52.0067 89.5529 52.33 90.5462 52.33C91.1996 52.33 91.7629 52.1833 92.2362 51.89C92.7162 51.59 93.0896 51.1633 93.3562 50.61L95.4062 51.26C94.9862 52.2267 94.3496 52.9767 93.4962 53.51C92.6429 54.0367 91.6929 54.3 90.6462 54.3ZM86.7962 49.19V47.56H94.5062V49.19H86.7962ZM96.9898 54V43.2H98.8498V45.82L98.5898 45.48C98.7232 45.1333 98.8965 44.8167 99.1098 44.53C99.3232 44.2367 99.5698 43.9967 99.8498 43.81C100.123 43.61 100.427 43.4567 100.76 43.35C101.1 43.2367 101.447 43.17 101.8 43.15C102.153 43.1233 102.493 43.14 102.82 43.2V45.16C102.467 45.0667 102.073 45.04 101.64 45.08C101.213 45.12 100.82 45.2567 100.46 45.49C100.12 45.71 99.8498 45.9767 99.6498 46.29C99.4565 46.6033 99.3165 46.9533 99.2298 47.34C99.1432 47.72 99.0998 48.1233 99.0998 48.55V54H96.9898ZM107.564 39.6H109.674L105.834 54H103.724L107.564 39.6ZM110.284 54L115.194 46.71L110.414 39.6H112.974L116.484 44.94L119.974 39.6H122.544L117.764 46.71L122.664 54H120.104L116.484 48.49L112.854 54H110.284Z" fill="#2F2F2F"/>
<rect x="448" width="424" height="180" rx="14" fill="white"/>
<circle cx="816" cy="124" r="26" fill="#82FF1F"/>
<g opacity="0.8" clip-path="url(#clip0_0_102)">
<path d="M816 118.923C814.996 118.923 814.014 119.221 813.179 119.779C812.345 120.337 811.694 121.129 811.31 122.057C810.925 122.985 810.825 124.006 811.021 124.99C811.217 125.975 811.7 126.88 812.41 127.59C813.12 128.3 814.025 128.783 815.01 128.979C815.994 129.175 817.015 129.075 817.943 128.69C818.871 128.306 819.663 127.655 820.221 126.821C820.779 125.986 821.077 125.004 821.077 124C821.076 122.654 820.54 121.363 819.588 120.412C818.637 119.46 817.346 118.924 816 118.923ZM816 127.385C815.331 127.385 814.676 127.186 814.12 126.814C813.563 126.442 813.129 125.914 812.873 125.295C812.617 124.677 812.55 123.996 812.68 123.34C812.811 122.683 813.133 122.08 813.607 121.607C814.08 121.133 814.683 120.811 815.34 120.68C815.996 120.55 816.677 120.617 817.295 120.873C817.914 121.129 818.442 121.563 818.814 122.12C819.186 122.676 819.385 123.331 819.385 124C819.385 124.898 819.028 125.759 818.393 126.393C817.759 127.028 816.898 127.385 816 127.385ZM821.077 113H810.923C809.353 113.002 807.847 113.626 806.737 114.737C805.626 115.847 805.002 117.353 805 118.923V129.077C805.002 130.647 805.626 132.153 806.737 133.263C807.847 134.374 809.353 134.998 810.923 135H821.077C822.647 134.998 824.153 134.374 825.263 133.263C826.374 132.153 826.998 130.647 827 129.077V118.923C826.998 117.353 826.374 115.847 825.263 114.737C824.153 113.626 822.647 113.002 821.077 113ZM825.308 129.077C825.308 130.199 824.862 131.275 824.069 132.069C823.275 132.862 822.199 133.308 821.077 133.308H810.923C809.801 133.308 808.725 132.862 807.931 132.069C807.138 131.275 806.692 130.199 806.692 129.077V118.923C806.692 117.801 807.138 116.725 807.931 115.931C808.725 115.138 809.801 114.692 810.923 114.692H821.077C822.199 114.692 823.275 115.138 824.069 115.931C824.862 116.725 825.308 117.801 825.308 118.923V129.077ZM822.769 118.5C822.769 118.751 822.695 118.996 822.555 119.205C822.416 119.414 822.218 119.577 821.986 119.673C821.754 119.769 821.499 119.794 821.252 119.745C821.006 119.696 820.78 119.575 820.603 119.397C820.425 119.22 820.304 118.994 820.255 118.748C820.206 118.501 820.231 118.246 820.327 118.014C820.423 117.782 820.586 117.584 820.795 117.445C821.004 117.305 821.249 117.231 821.5 117.231C821.837 117.231 822.159 117.364 822.397 117.603C822.636 117.841 822.769 118.163 822.769 118.5Z" fill="black"/>
</g>
<path d="M489.6 54V39.6H491.69V54H489.6ZM501.473 54V48.69C501.473 48.27 501.436 47.84 501.363 47.4C501.296 46.9533 501.163 46.54 500.963 46.16C500.77 45.78 500.493 45.4733 500.133 45.24C499.78 45.0067 499.316 44.89 498.743 44.89C498.37 44.89 498.016 44.9533 497.683 45.08C497.35 45.2 497.056 45.3967 496.803 45.67C496.556 45.9433 496.36 46.3033 496.213 46.75C496.073 47.1967 496.003 47.74 496.003 48.38L494.703 47.89C494.703 46.91 494.886 46.0467 495.253 45.3C495.62 44.5467 496.146 43.96 496.833 43.54C497.52 43.12 498.35 42.91 499.323 42.91C500.07 42.91 500.696 43.03 501.203 43.27C501.71 43.51 502.12 43.8267 502.433 44.22C502.753 44.6067 502.996 45.03 503.163 45.49C503.33 45.95 503.443 46.4 503.503 46.84C503.563 47.28 503.593 47.6667 503.593 48V54H501.473ZM493.883 54V43.2H495.753V46.32H496.003V54H493.883ZM509.528 54.29C508.214 54.29 507.144 54 506.318 53.42C505.491 52.84 504.984 52.0233 504.798 50.97L506.938 50.64C507.071 51.2 507.378 51.6433 507.858 51.97C508.344 52.29 508.948 52.45 509.668 52.45C510.321 52.45 510.831 52.3167 511.198 52.05C511.571 51.7833 511.758 51.4167 511.758 50.95C511.758 50.6767 511.691 50.4567 511.558 50.29C511.431 50.1167 511.161 49.9533 510.748 49.8C510.334 49.6467 509.704 49.4567 508.858 49.23C507.931 48.99 507.194 48.7333 506.648 48.46C506.108 48.18 505.721 47.8567 505.488 47.49C505.261 47.1167 505.148 46.6667 505.148 46.14C505.148 45.4867 505.321 44.9167 505.668 44.43C506.014 43.9433 506.501 43.5667 507.128 43.3C507.761 43.0333 508.501 42.9 509.348 42.9C510.174 42.9 510.911 43.03 511.558 43.29C512.204 43.55 512.728 43.92 513.128 44.4C513.528 44.8733 513.768 45.43 513.848 46.07L511.708 46.46C511.634 45.94 511.391 45.53 510.978 45.23C510.564 44.93 510.028 44.7667 509.368 44.74C508.734 44.7133 508.221 44.82 507.828 45.06C507.434 45.2933 507.238 45.6167 507.238 46.03C507.238 46.27 507.311 46.4733 507.458 46.64C507.611 46.8067 507.904 46.9667 508.338 47.12C508.771 47.2733 509.411 47.4567 510.258 47.67C511.164 47.9033 511.884 48.1633 512.418 48.45C512.951 48.73 513.331 49.0667 513.558 49.46C513.791 49.8467 513.908 50.3167 513.908 50.87C513.908 51.9367 513.518 52.7733 512.738 53.38C511.964 53.9867 510.894 54.29 509.528 54.29ZM521.5 54C520.82 54.1333 520.154 54.19 519.5 54.17C518.847 54.15 518.264 54.0233 517.75 53.79C517.237 53.5567 516.85 53.19 516.59 52.69C516.357 52.2433 516.23 51.79 516.21 51.33C516.197 50.8633 516.19 50.3367 516.19 49.75V40.2H518.29V49.65C518.29 50.0833 518.294 50.46 518.3 50.78C518.314 51.1 518.384 51.37 518.51 51.59C518.75 52.0033 519.13 52.24 519.65 52.3C520.177 52.3533 520.794 52.33 521.5 52.23V54ZM514.12 44.88V43.2H521.5V44.88H514.12ZM526.027 54.3C525.227 54.3 524.557 54.1533 524.017 53.86C523.477 53.56 523.067 53.1667 522.787 52.68C522.514 52.1867 522.377 51.6467 522.377 51.06C522.377 50.5133 522.474 50.0333 522.667 49.62C522.861 49.2067 523.147 48.8567 523.527 48.57C523.907 48.2767 524.374 48.04 524.927 47.86C525.407 47.72 525.951 47.5967 526.557 47.49C527.164 47.3833 527.801 47.2833 528.467 47.19C529.141 47.0967 529.807 47.0033 530.467 46.91L529.707 47.33C529.721 46.4833 529.541 45.8567 529.167 45.45C528.801 45.0367 528.167 44.83 527.267 44.83C526.701 44.83 526.181 44.9633 525.707 45.23C525.234 45.49 524.904 45.9233 524.717 46.53L522.767 45.93C523.034 45.0033 523.541 44.2667 524.287 43.72C525.041 43.1733 526.041 42.9 527.287 42.9C528.254 42.9 529.094 43.0667 529.807 43.4C530.527 43.7267 531.054 44.2467 531.387 44.96C531.561 45.3133 531.667 45.6867 531.707 46.08C531.747 46.4733 531.767 46.8967 531.767 47.35V54H529.917V51.53L530.277 51.85C529.831 52.6767 529.261 53.2933 528.567 53.7C527.881 54.1 527.034 54.3 526.027 54.3ZM526.397 52.59C526.991 52.59 527.501 52.4867 527.927 52.28C528.354 52.0667 528.697 51.7967 528.957 51.47C529.217 51.1433 529.387 50.8033 529.467 50.45C529.581 50.13 529.644 49.77 529.657 49.37C529.677 48.97 529.687 48.65 529.687 48.41L530.367 48.66C529.707 48.76 529.107 48.85 528.567 48.93C528.027 49.01 527.537 49.09 527.097 49.17C526.664 49.2433 526.277 49.3333 525.937 49.44C525.651 49.54 525.394 49.66 525.167 49.8C524.947 49.94 524.771 50.11 524.637 50.31C524.511 50.51 524.447 50.7533 524.447 51.04C524.447 51.32 524.517 51.58 524.657 51.82C524.797 52.0533 525.011 52.24 525.297 52.38C525.584 52.52 525.951 52.59 526.397 52.59ZM538.014 59.1C537.434 59.1 536.871 59.01 536.324 58.83C535.784 58.65 535.291 58.3833 534.844 58.03C534.397 57.6833 534.027 57.2533 533.734 56.74L535.664 55.76C535.897 56.22 536.231 56.5567 536.664 56.77C537.097 56.9833 537.554 57.09 538.034 57.09C538.627 57.09 539.134 56.9833 539.554 56.77C539.974 56.5633 540.291 56.25 540.504 55.83C540.724 55.41 540.831 54.89 540.824 54.27V51.25H541.074V43.2H542.924V54.29C542.924 54.5767 542.914 54.85 542.894 55.11C542.874 55.37 542.837 55.63 542.784 55.89C542.631 56.6167 542.337 57.2167 541.904 57.69C541.477 58.1633 540.931 58.5167 540.264 58.75C539.604 58.9833 538.854 59.1 538.014 59.1ZM537.854 54.3C536.847 54.3 535.977 54.05 535.244 53.55C534.517 53.05 533.954 52.37 533.554 51.51C533.161 50.6433 532.964 49.67 532.964 48.59C532.964 47.5033 533.164 46.5333 533.564 45.68C533.964 44.82 534.531 44.1433 535.264 43.65C536.004 43.15 536.881 42.9 537.894 42.9C538.914 42.9 539.771 43.15 540.464 43.65C541.164 44.1433 541.691 44.82 542.044 45.68C542.404 46.54 542.584 47.51 542.584 48.59C542.584 49.67 542.404 50.64 542.044 51.5C541.684 52.36 541.154 53.0433 540.454 53.55C539.754 54.05 538.887 54.3 537.854 54.3ZM538.144 52.41C538.831 52.41 539.391 52.2467 539.824 51.92C540.257 51.5933 540.574 51.1433 540.774 50.57C540.974 49.9967 541.074 49.3367 541.074 48.59C541.074 47.8433 540.971 47.1833 540.764 46.61C540.564 46.0367 540.251 45.59 539.824 45.27C539.404 44.95 538.867 44.79 538.214 44.79C537.521 44.79 536.951 44.96 536.504 45.3C536.057 45.64 535.724 46.0967 535.504 46.67C535.291 47.2433 535.184 47.8833 535.184 48.59C535.184 49.3033 535.291 49.95 535.504 50.53C535.724 51.1033 536.051 51.56 536.484 51.9C536.924 52.24 537.477 52.41 538.144 52.41ZM544.932 54V43.2H546.792V45.82L546.532 45.48C546.665 45.1333 546.839 44.8167 547.052 44.53C547.265 44.2367 547.512 43.9967 547.792 43.81C548.065 43.61 548.369 43.4567 548.702 43.35C549.042 43.2367 549.389 43.17 549.742 43.15C550.095 43.1233 550.435 43.14 550.762 43.2V45.16C550.409 45.0667 550.015 45.04 549.582 45.08C549.155 45.12 548.762 45.2567 548.402 45.49C548.062 45.71 547.792 45.9767 547.592 46.29C547.399 46.6033 547.259 46.9533 547.172 47.34C547.085 47.72 547.042 48.1233 547.042 48.55V54H544.932ZM554.604 54.3C553.804 54.3 553.134 54.1533 552.594 53.86C552.054 53.56 551.644 53.1667 551.364 52.68C551.091 52.1867 550.954 51.6467 550.954 51.06C550.954 50.5133 551.051 50.0333 551.244 49.62C551.437 49.2067 551.724 48.8567 552.104 48.57C552.484 48.2767 552.951 48.04 553.504 47.86C553.984 47.72 554.527 47.5967 555.134 47.49C555.741 47.3833 556.377 47.2833 557.044 47.19C557.717 47.0967 558.384 47.0033 559.044 46.91L558.284 47.33C558.297 46.4833 558.117 45.8567 557.744 45.45C557.377 45.0367 556.744 44.83 555.844 44.83C555.277 44.83 554.757 44.9633 554.284 45.23C553.811 45.49 553.481 45.9233 553.294 46.53L551.344 45.93C551.611 45.0033 552.117 44.2667 552.864 43.72C553.617 43.1733 554.617 42.9 555.864 42.9C556.831 42.9 557.671 43.0667 558.384 43.4C559.104 43.7267 559.631 44.2467 559.964 44.96C560.137 45.3133 560.244 45.6867 560.284 46.08C560.324 46.4733 560.344 46.8967 560.344 47.35V54H558.494V51.53L558.854 51.85C558.407 52.6767 557.837 53.2933 557.144 53.7C556.457 54.1 555.611 54.3 554.604 54.3ZM554.974 52.59C555.567 52.59 556.077 52.4867 556.504 52.28C556.931 52.0667 557.274 51.7967 557.534 51.47C557.794 51.1433 557.964 50.8033 558.044 50.45C558.157 50.13 558.221 49.77 558.234 49.37C558.254 48.97 558.264 48.65 558.264 48.41L558.944 48.66C558.284 48.76 557.684 48.85 557.144 48.93C556.604 49.01 556.114 49.09 555.674 49.17C555.241 49.2433 554.854 49.3333 554.514 49.44C554.227 49.54 553.971 49.66 553.744 49.8C553.524 49.94 553.347 50.11 553.214 50.31C553.087 50.51 553.024 50.7533 553.024 51.04C553.024 51.32 553.094 51.58 553.234 51.82C553.374 52.0533 553.587 52.24 553.874 52.38C554.161 52.52 554.527 52.59 554.974 52.59ZM575.081 54L575.091 47.27C575.091 46.49 574.891 45.8833 574.491 45.45C574.091 45.01 573.564 44.79 572.911 44.79C572.511 44.79 572.144 44.8833 571.811 45.07C571.484 45.25 571.217 45.5233 571.011 45.89C570.811 46.25 570.711 46.7033 570.711 47.25L569.701 46.74C569.687 45.98 569.847 45.3133 570.181 44.74C570.521 44.1667 570.981 43.7233 571.561 43.41C572.141 43.09 572.791 42.93 573.511 42.93C574.677 42.93 575.581 43.28 576.221 43.98C576.861 44.68 577.181 45.61 577.181 46.77L577.171 54H575.081ZM562.131 54V43.2H563.991V46.32H564.231V54H562.131ZM568.611 54L568.621 47.31C568.621 46.5233 568.421 45.9067 568.021 45.46C567.627 45.0133 567.097 44.79 566.431 44.79C565.771 44.79 565.237 45.0167 564.831 45.47C564.431 45.9233 564.231 46.5167 564.231 47.25L563.231 46.61C563.231 45.9033 563.401 45.2733 563.741 44.72C564.081 44.1667 564.541 43.73 565.121 43.41C565.701 43.09 566.357 42.93 567.091 42.93C567.857 42.93 568.511 43.0933 569.051 43.42C569.591 43.74 570.001 44.19 570.281 44.77C570.567 45.35 570.711 46.0233 570.711 46.79L570.701 54H568.611Z" fill="#2F2F2F"/>
<rect y="204" width="424" height="180" rx="14" fill="white"/>
<circle cx="368" cy="328" r="26" fill="#82FF1F"/>
<g opacity="0.8">
<path d="M371.214 321.333C371.214 321.039 371.327 320.756 371.528 320.548C371.729 320.339 372.002 320.222 372.286 320.222H380.857C381.141 320.222 381.414 320.339 381.615 320.548C381.816 320.756 381.929 321.039 381.929 321.333C381.929 321.628 381.816 321.911 381.615 322.119C381.414 322.327 381.141 322.444 380.857 322.444H372.286C372.002 322.444 371.729 322.327 371.528 322.119C371.327 321.911 371.214 321.628 371.214 321.333ZM368 332.167C368 333.714 367.407 335.197 366.352 336.291C365.298 337.385 363.867 338 362.375 338H354.071C353.787 338 353.515 337.883 353.314 337.675C353.113 337.466 353 337.184 353 336.889V319.111C353 318.816 353.113 318.534 353.314 318.325C353.515 318.117 353.787 318 354.071 318H361.839C362.864 318.001 363.865 318.323 364.71 318.924C365.555 319.524 366.206 320.375 366.578 321.366C366.949 322.356 367.023 323.44 366.79 324.475C366.558 325.51 366.03 326.448 365.275 327.167C366.106 327.685 366.794 328.419 367.272 329.295C367.749 330.171 368 331.16 368 332.167ZM355.143 326.333H361.839C362.621 326.333 363.37 326.011 363.923 325.438C364.475 324.865 364.786 324.088 364.786 323.278C364.786 322.467 364.475 321.69 363.923 321.117C363.37 320.544 362.621 320.222 361.839 320.222H355.143V326.333ZM365.857 332.167C365.857 331.692 365.767 331.223 365.592 330.785C365.417 330.347 365.161 329.949 364.837 329.613C364.514 329.278 364.13 329.012 363.708 328.83C363.285 328.649 362.832 328.556 362.375 328.556H355.143V335.778H362.375C362.832 335.778 363.285 335.684 363.708 335.503C364.13 335.321 364.514 335.055 364.837 334.72C365.161 334.385 365.417 333.987 365.592 333.549C365.767 333.11 365.857 332.641 365.857 332.167ZM383 331.333C383 331.628 382.887 331.911 382.686 332.119C382.485 332.327 382.213 332.444 381.929 332.444H372.42C372.621 333.255 373.04 333.99 373.627 334.565C374.214 335.14 374.945 335.531 375.737 335.694C376.529 335.857 377.35 335.784 378.104 335.484C378.857 335.184 379.514 334.67 379.999 334C380.083 333.883 380.189 333.785 380.31 333.711C380.431 333.636 380.565 333.587 380.705 333.567C380.844 333.546 380.986 333.554 381.122 333.591C381.259 333.627 381.387 333.691 381.499 333.778C381.612 333.866 381.707 333.976 381.778 334.102C381.85 334.227 381.897 334.366 381.917 334.511C381.937 334.655 381.929 334.802 381.894 334.944C381.859 335.085 381.797 335.218 381.713 335.335C380.797 336.601 379.476 337.487 377.987 337.836C376.498 338.184 374.938 337.972 373.586 337.237C372.234 336.502 371.179 335.292 370.609 333.824C370.038 332.356 369.99 330.725 370.473 329.223C370.956 327.722 371.939 326.447 373.245 325.628C374.551 324.809 376.095 324.499 377.602 324.752C379.109 325.006 380.479 325.808 381.468 327.013C382.457 328.219 383 329.75 383 331.333ZM380.723 330.222C380.487 329.266 379.951 328.419 379.199 327.814C378.448 327.209 377.523 326.88 376.571 326.88C375.62 326.88 374.695 327.209 373.944 327.814C373.192 328.419 372.656 329.266 372.42 330.222H380.723Z" fill="black"/>
</g>
<path d="M41.4 258V243.6H47.06C47.9733 243.6 48.74 243.787 49.36 244.16C49.98 244.533 50.4467 245.017 50.76 245.61C51.0733 246.197 51.23 246.817 51.23 247.47C51.23 248.263 51.0333 248.943 50.64 249.51C50.2533 250.077 49.73 250.463 49.07 250.67L49.05 250.18C49.97 250.407 50.6767 250.85 51.17 251.51C51.6633 252.163 51.91 252.927 51.91 253.8C51.91 254.647 51.74 255.383 51.4 256.01C51.0667 256.637 50.5767 257.127 49.93 257.48C49.29 257.827 48.5133 258 47.6 258H41.4ZM43.52 256.01H47.28C47.7533 256.01 48.1767 255.92 48.55 255.74C48.93 255.56 49.2267 255.303 49.44 254.97C49.66 254.63 49.77 254.227 49.77 253.76C49.77 253.327 49.6733 252.937 49.48 252.59C49.2933 252.237 49.02 251.96 48.66 251.76C48.3067 251.553 47.89 251.45 47.41 251.45H43.52V256.01ZM43.52 249.48H47.03C47.4167 249.48 47.7633 249.403 48.07 249.25C48.3833 249.09 48.63 248.863 48.81 248.57C48.9967 248.27 49.09 247.91 49.09 247.49C49.09 246.93 48.9033 246.47 48.53 246.11C48.1567 245.75 47.6567 245.57 47.03 245.57H43.52V249.48ZM57.89 258.3C56.8167 258.3 55.8733 258.067 55.06 257.6C54.2533 257.127 53.6233 256.47 53.17 255.63C52.7233 254.783 52.5 253.803 52.5 252.69C52.5 251.51 52.72 250.487 53.16 249.62C53.6067 248.753 54.2267 248.083 55.02 247.61C55.8133 247.137 56.7367 246.9 57.79 246.9C58.89 246.9 59.8267 247.157 60.6 247.67C61.3733 248.177 61.95 248.9 62.33 249.84C62.7167 250.78 62.87 251.897 62.79 253.19H60.7V252.43C60.6867 251.177 60.4467 250.25 59.98 249.65C59.52 249.05 58.8167 248.75 57.87 248.75C56.8233 248.75 56.0367 249.08 55.51 249.74C54.9833 250.4 54.72 251.353 54.72 252.6C54.72 253.787 54.9833 254.707 55.51 255.36C56.0367 256.007 56.7967 256.33 57.79 256.33C58.4433 256.33 59.0067 256.183 59.48 255.89C59.96 255.59 60.3333 255.163 60.6 254.61L62.65 255.26C62.23 256.227 61.5933 256.977 60.74 257.51C59.8867 258.037 58.9367 258.3 57.89 258.3ZM54.04 253.19V251.56H61.75V253.19H54.04ZM71.8136 258V252.69C71.8136 252.27 71.7769 251.84 71.7036 251.4C71.6369 250.953 71.5036 250.54 71.3036 250.16C71.1103 249.78 70.8336 249.473 70.4736 249.24C70.1203 249.007 69.6569 248.89 69.0836 248.89C68.7103 248.89 68.3569 248.953 68.0236 249.08C67.6903 249.2 67.3969 249.397 67.1436 249.67C66.8969 249.943 66.7003 250.303 66.5536 250.75C66.4136 251.197 66.3436 251.74 66.3436 252.38L65.0436 251.89C65.0436 250.91 65.2269 250.047 65.5936 249.3C65.9603 248.547 66.4869 247.96 67.1736 247.54C67.8603 247.12 68.6903 246.91 69.6636 246.91C70.4103 246.91 71.0369 247.03 71.5436 247.27C72.0503 247.51 72.4603 247.827 72.7736 248.22C73.0936 248.607 73.3369 249.03 73.5036 249.49C73.6703 249.95 73.7836 250.4 73.8436 250.84C73.9036 251.28 73.9336 251.667 73.9336 252V258H71.8136ZM64.2236 258V243.6H66.0936V251.37H66.3436V258H64.2236ZM78.7883 258.3C77.9883 258.3 77.3183 258.153 76.7783 257.86C76.2383 257.56 75.8283 257.167 75.5483 256.68C75.2749 256.187 75.1383 255.647 75.1383 255.06C75.1383 254.513 75.2349 254.033 75.4283 253.62C75.6216 253.207 75.9083 252.857 76.2883 252.57C76.6683 252.277 77.1349 252.04 77.6883 251.86C78.1683 251.72 78.7116 251.597 79.3183 251.49C79.9249 251.383 80.5616 251.283 81.2283 251.19C81.9016 251.097 82.5683 251.003 83.2283 250.91L82.4683 251.33C82.4816 250.483 82.3016 249.857 81.9283 249.45C81.5616 249.037 80.9283 248.83 80.0283 248.83C79.4616 248.83 78.9416 248.963 78.4683 249.23C77.9949 249.49 77.6649 249.923 77.4783 250.53L75.5283 249.93C75.7949 249.003 76.3016 248.267 77.0483 247.72C77.8016 247.173 78.8016 246.9 80.0483 246.9C81.0149 246.9 81.8549 247.067 82.5683 247.4C83.2883 247.727 83.8149 248.247 84.1483 248.96C84.3216 249.313 84.4283 249.687 84.4683 250.08C84.5083 250.473 84.5283 250.897 84.5283 251.35V258H82.6783V255.53L83.0383 255.85C82.5916 256.677 82.0216 257.293 81.3283 257.7C80.6416 258.1 79.7949 258.3 78.7883 258.3ZM79.1583 256.59C79.7516 256.59 80.2616 256.487 80.6883 256.28C81.1149 256.067 81.4583 255.797 81.7183 255.47C81.9783 255.143 82.1483 254.803 82.2283 254.45C82.3416 254.13 82.4049 253.77 82.4183 253.37C82.4383 252.97 82.4483 252.65 82.4483 252.41L83.1283 252.66C82.4683 252.76 81.8683 252.85 81.3283 252.93C80.7883 253.01 80.2983 253.09 79.8583 253.17C79.4249 253.243 79.0383 253.333 78.6983 253.44C78.4116 253.54 78.1549 253.66 77.9283 253.8C77.7083 253.94 77.5316 254.11 77.3983 254.31C77.2716 254.51 77.2083 254.753 77.2083 255.04C77.2083 255.32 77.2783 255.58 77.4183 255.82C77.5583 256.053 77.7716 256.24 78.0583 256.38C78.3449 256.52 78.7116 256.59 79.1583 256.59ZM93.905 258V252.69C93.905 252.27 93.8683 251.84 93.795 251.4C93.7283 250.953 93.595 250.54 93.395 250.16C93.2017 249.78 92.925 249.473 92.565 249.24C92.2117 249.007 91.7483 248.89 91.175 248.89C90.8017 248.89 90.4483 248.953 90.115 249.08C89.7817 249.2 89.4883 249.397 89.235 249.67C88.9883 249.943 88.7917 250.303 88.645 250.75C88.505 251.197 88.435 251.74 88.435 252.38L87.135 251.89C87.135 250.91 87.3183 250.047 87.685 249.3C88.0517 248.547 88.5783 247.96 89.265 247.54C89.9517 247.12 90.7817 246.91 91.755 246.91C92.5017 246.91 93.1283 247.03 93.635 247.27C94.1417 247.51 94.5517 247.827 94.865 248.22C95.185 248.607 95.4283 249.03 95.595 249.49C95.7617 249.95 95.875 250.4 95.935 250.84C95.995 251.28 96.025 251.667 96.025 252V258H93.905ZM86.315 258V247.2H88.185V250.32H88.435V258H86.315ZM102.313 258.3C101.206 258.3 100.266 258.053 99.493 257.56C98.7196 257.067 98.1263 256.39 97.713 255.53C97.3063 254.67 97.0996 253.693 97.093 252.6C97.0996 251.487 97.313 250.503 97.733 249.65C98.153 248.79 98.753 248.117 99.533 247.63C100.313 247.143 101.25 246.9 102.343 246.9C103.523 246.9 104.53 247.193 105.363 247.78C106.203 248.367 106.756 249.17 107.023 250.19L104.943 250.79C104.736 250.183 104.396 249.713 103.923 249.38C103.456 249.04 102.92 248.87 102.313 248.87C101.626 248.87 101.063 249.033 100.623 249.36C100.183 249.68 99.8563 250.12 99.643 250.68C99.4296 251.24 99.3196 251.88 99.313 252.6C99.3196 253.713 99.573 254.613 100.073 255.3C100.58 255.987 101.326 256.33 102.313 256.33C102.986 256.33 103.53 256.177 103.943 255.87C104.363 255.557 104.683 255.11 104.903 254.53L107.023 255.03C106.67 256.083 106.086 256.893 105.273 257.46C104.46 258.02 103.473 258.3 102.313 258.3ZM112.757 258.3C111.684 258.3 110.741 258.067 109.927 257.6C109.121 257.127 108.491 256.47 108.037 255.63C107.591 254.783 107.367 253.803 107.367 252.69C107.367 251.51 107.587 250.487 108.027 249.62C108.474 248.753 109.094 248.083 109.887 247.61C110.681 247.137 111.604 246.9 112.657 246.9C113.757 246.9 114.694 247.157 115.467 247.67C116.241 248.177 116.817 248.9 117.197 249.84C117.584 250.78 117.737 251.897 117.657 253.19H115.567V252.43C115.554 251.177 115.314 250.25 114.847 249.65C114.387 249.05 113.684 248.75 112.737 248.75C111.691 248.75 110.904 249.08 110.377 249.74C109.851 250.4 109.587 251.353 109.587 252.6C109.587 253.787 109.851 254.707 110.377 255.36C110.904 256.007 111.664 256.33 112.657 256.33C113.311 256.33 113.874 256.183 114.347 255.89C114.827 255.59 115.201 255.163 115.467 254.61L117.517 255.26C117.097 256.227 116.461 256.977 115.607 257.51C114.754 258.037 113.804 258.3 112.757 258.3ZM108.907 253.19V251.56H116.617V253.19H108.907Z" fill="#2F2F2F"/>
<rect x="448" y="204" width="424" height="180" rx="14" fill="#82FF1F"/>
<path d="M808.762 318C809.182 318 809.53 318.333 809.53 318.749V329.418C809.53 333.901 813.265 337.545 817.86 337.545H828.993L824.175 333.914C823.84 333.664 823.781 333.19 824.037 332.864C824.293 332.537 824.779 332.48 825.114 332.729L831.705 337.699C831.895 337.84 832 338.057 832 338.288C832 338.518 831.888 338.736 831.705 338.877L825.107 343.846C824.969 343.949 824.805 344 824.641 344C824.411 344 824.188 343.898 824.037 343.712C823.781 343.385 823.84 342.918 824.175 342.662L828.993 339.037H817.86C812.425 339.037 808 334.721 808 329.418V318.749C807.994 318.333 808.341 318 808.762 318Z" fill="#2F2F2F"/>
<path d="M495.29 258.3C494.323 258.3 493.433 258.133 492.62 257.8C491.807 257.46 491.1 256.967 490.5 256.32C489.9 255.673 489.433 254.887 489.1 253.96C488.767 253.033 488.6 251.98 488.6 250.8C488.6 249.247 488.883 247.913 489.45 246.8C490.017 245.68 490.803 244.82 491.81 244.22C492.817 243.613 493.977 243.31 495.29 243.31C496.983 243.31 498.333 243.703 499.34 244.49C500.353 245.277 501.043 246.363 501.41 247.75L499.29 248.13C498.997 247.27 498.523 246.583 497.87 246.07C497.217 245.557 496.397 245.297 495.41 245.29C494.39 245.283 493.54 245.51 492.86 245.97C492.187 246.43 491.68 247.077 491.34 247.91C491 248.737 490.827 249.7 490.82 250.8C490.813 251.9 490.98 252.863 491.32 253.69C491.66 254.51 492.17 255.15 492.85 255.61C493.537 256.07 494.39 256.303 495.41 256.31C496.23 256.323 496.933 256.173 497.52 255.86C498.113 255.54 498.583 255.073 498.93 254.46C499.277 253.847 499.5 253.093 499.6 252.2H496.8V250.52H501.82C501.833 250.64 501.843 250.8 501.85 251C501.857 251.193 501.86 251.317 501.86 251.37C501.86 252.703 501.603 253.893 501.09 254.94C500.577 255.987 499.83 256.81 498.85 257.41C497.87 258.003 496.683 258.3 495.29 258.3ZM507.843 258.3C506.77 258.3 505.826 258.067 505.013 257.6C504.206 257.127 503.576 256.47 503.123 255.63C502.676 254.783 502.453 253.803 502.453 252.69C502.453 251.51 502.673 250.487 503.113 249.62C503.56 248.753 504.18 248.083 504.973 247.61C505.766 247.137 506.69 246.9 507.743 246.9C508.843 246.9 509.78 247.157 510.553 247.67C511.326 248.177 511.903 248.9 512.283 249.84C512.67 250.78 512.823 251.897 512.743 253.19H510.653V252.43C510.64 251.177 510.4 250.25 509.933 249.65C509.473 249.05 508.77 248.75 507.823 248.75C506.776 248.75 505.99 249.08 505.463 249.74C504.936 250.4 504.673 251.353 504.673 252.6C504.673 253.787 504.936 254.707 505.463 255.36C505.99 256.007 506.75 256.33 507.743 256.33C508.396 256.33 508.96 256.183 509.433 255.89C509.913 255.59 510.286 255.163 510.553 254.61L512.603 255.26C512.183 256.227 511.546 256.977 510.693 257.51C509.84 258.037 508.89 258.3 507.843 258.3ZM503.993 253.19V251.56H511.703V253.19H503.993ZM520.367 258C519.687 258.133 519.02 258.19 518.367 258.17C517.713 258.15 517.13 258.023 516.617 257.79C516.103 257.557 515.717 257.19 515.457 256.69C515.223 256.243 515.097 255.79 515.077 255.33C515.063 254.863 515.057 254.337 515.057 253.75V244.2H517.157V253.65C517.157 254.083 517.16 254.46 517.167 254.78C517.18 255.1 517.25 255.37 517.377 255.59C517.617 256.003 517.997 256.24 518.517 256.3C519.043 256.353 519.66 256.33 520.367 256.23V258ZM512.987 248.88V247.2H520.367V248.88H512.987ZM525.248 245.43V243.4H527.338V245.43H525.248ZM525.248 258V247.2H527.338V258H525.248ZM537.121 258V252.69C537.121 252.27 537.084 251.84 537.011 251.4C536.944 250.953 536.811 250.54 536.611 250.16C536.417 249.78 536.141 249.473 535.781 249.24C535.427 249.007 534.964 248.89 534.391 248.89C534.017 248.89 533.664 248.953 533.331 249.08C532.997 249.2 532.704 249.397 532.451 249.67C532.204 249.943 532.007 250.303 531.861 250.75C531.721 251.197 531.651 251.74 531.651 252.38L530.351 251.89C530.351 250.91 530.534 250.047 530.901 249.3C531.267 248.547 531.794 247.96 532.481 247.54C533.167 247.12 533.997 246.91 534.971 246.91C535.717 246.91 536.344 247.03 536.851 247.27C537.357 247.51 537.767 247.827 538.081 248.22C538.401 248.607 538.644 249.03 538.811 249.49C538.977 249.95 539.091 250.4 539.151 250.84C539.211 251.28 539.241 251.667 539.241 252V258H537.121ZM529.531 258V247.2H531.401V250.32H531.651V258H529.531ZM550.429 258C549.749 258.133 549.083 258.19 548.429 258.17C547.776 258.15 547.193 258.023 546.679 257.79C546.166 257.557 545.779 257.19 545.519 256.69C545.286 256.243 545.159 255.79 545.139 255.33C545.126 254.863 545.119 254.337 545.119 253.75V244.2H547.219V253.65C547.219 254.083 547.223 254.46 547.229 254.78C547.243 255.1 547.313 255.37 547.439 255.59C547.679 256.003 548.059 256.24 548.579 256.3C549.106 256.353 549.723 256.33 550.429 256.23V258ZM543.049 248.88V247.2H550.429V248.88H543.049ZM556.108 258.3C555.028 258.3 554.091 258.057 553.298 257.57C552.505 257.083 551.891 256.413 551.458 255.56C551.031 254.7 550.818 253.71 550.818 252.59C550.818 251.463 551.038 250.473 551.478 249.62C551.918 248.76 552.535 248.093 553.328 247.62C554.121 247.14 555.048 246.9 556.108 246.9C557.188 246.9 558.125 247.143 558.918 247.63C559.711 248.117 560.325 248.787 560.758 249.64C561.191 250.493 561.408 251.477 561.408 252.59C561.408 253.717 561.188 254.71 560.748 255.57C560.315 256.423 559.701 257.093 558.908 257.58C558.115 258.06 557.181 258.3 556.108 258.3ZM556.108 256.33C557.141 256.33 557.911 255.983 558.418 255.29C558.931 254.59 559.188 253.69 559.188 252.59C559.188 251.463 558.928 250.563 558.408 249.89C557.895 249.21 557.128 248.87 556.108 248.87C555.408 248.87 554.831 249.03 554.378 249.35C553.925 249.663 553.588 250.1 553.368 250.66C553.148 251.213 553.038 251.857 553.038 252.59C553.038 253.723 553.298 254.63 553.818 255.31C554.338 255.99 555.101 256.33 556.108 256.33ZM566.875 258.29C566.129 258.29 565.502 258.17 564.995 257.93C564.489 257.69 564.075 257.377 563.755 256.99C563.442 256.597 563.202 256.17 563.035 255.71C562.869 255.25 562.755 254.8 562.695 254.36C562.635 253.92 562.605 253.533 562.605 253.2V247.2H564.725V252.51C564.725 252.93 564.759 253.363 564.825 253.81C564.899 254.25 565.032 254.66 565.225 255.04C565.425 255.42 565.702 255.727 566.055 255.96C566.415 256.193 566.882 256.31 567.455 256.31C567.829 256.31 568.182 256.25 568.515 256.13C568.849 256.003 569.139 255.803 569.385 255.53C569.639 255.257 569.835 254.897 569.975 254.45C570.122 254.003 570.195 253.46 570.195 252.82L571.495 253.31C571.495 254.29 571.312 255.157 570.945 255.91C570.579 256.657 570.052 257.24 569.365 257.66C568.679 258.08 567.849 258.29 566.875 258.29ZM570.445 258V254.88H570.195V247.2H572.305V258H570.445ZM578.93 258.3C577.823 258.3 576.883 258.053 576.11 257.56C575.337 257.067 574.743 256.39 574.33 255.53C573.923 254.67 573.717 253.693 573.71 252.6C573.717 251.487 573.93 250.503 574.35 249.65C574.77 248.79 575.37 248.117 576.15 247.63C576.93 247.143 577.867 246.9 578.96 246.9C580.14 246.9 581.147 247.193 581.98 247.78C582.82 248.367 583.373 249.17 583.64 250.19L581.56 250.79C581.353 250.183 581.013 249.713 580.54 249.38C580.073 249.04 579.537 248.87 578.93 248.87C578.243 248.87 577.68 249.033 577.24 249.36C576.8 249.68 576.473 250.12 576.26 250.68C576.047 251.24 575.937 251.88 575.93 252.6C575.937 253.713 576.19 254.613 576.69 255.3C577.197 255.987 577.943 256.33 578.93 256.33C579.603 256.33 580.147 256.177 580.56 255.87C580.98 255.557 581.3 255.11 581.52 254.53L583.64 255.03C583.287 256.083 582.703 256.893 581.89 257.46C581.077 258.02 580.09 258.3 578.93 258.3ZM592.457 258V252.69C592.457 252.27 592.421 251.84 592.347 251.4C592.281 250.953 592.147 250.54 591.947 250.16C591.754 249.78 591.477 249.473 591.117 249.24C590.764 249.007 590.301 248.89 589.727 248.89C589.354 248.89 589.001 248.953 588.667 249.08C588.334 249.2 588.041 249.397 587.787 249.67C587.541 249.943 587.344 250.303 587.197 250.75C587.057 251.197 586.987 251.74 586.987 252.38L585.687 251.89C585.687 250.91 585.871 250.047 586.237 249.3C586.604 248.547 587.131 247.96 587.817 247.54C588.504 247.12 589.334 246.91 590.307 246.91C591.054 246.91 591.681 247.03 592.187 247.27C592.694 247.51 593.104 247.827 593.417 248.22C593.737 248.607 593.981 249.03 594.147 249.49C594.314 249.95 594.427 250.4 594.487 250.84C594.547 251.28 594.577 251.667 594.577 252V258H592.457ZM584.867 258V243.6H586.737V251.37H586.987V258H584.867Z" fill="#2F2F2F"/>
<rect x="896" width="424" height="180" rx="14" fill="white"/>
<circle cx="1264" cy="124" r="26" fill="#82FF1F"/>
<g opacity="0.8">
<path d="M1264 112.625C1261.75 112.625 1259.55 113.292 1257.68 114.542C1255.81 115.792 1254.35 117.568 1253.49 119.647C1252.63 121.725 1252.4 124.013 1252.84 126.219C1253.28 128.426 1254.37 130.453 1255.96 132.043C1257.55 133.634 1259.57 134.718 1261.78 135.156C1263.99 135.595 1266.27 135.37 1268.35 134.509C1270.43 133.648 1272.21 132.19 1273.46 130.32C1274.71 128.449 1275.38 126.25 1275.38 124C1275.37 120.984 1274.17 118.093 1272.04 115.96C1269.91 113.828 1267.02 112.628 1264 112.625ZM1273.59 123.145C1273.31 123.132 1273.03 123.125 1272.75 123.125C1271.13 123.125 1269.51 123.34 1267.94 123.764C1267.56 122.63 1267.07 121.537 1266.47 120.5C1268.03 119.562 1269.44 118.399 1270.65 117.049C1272.34 118.658 1273.38 120.824 1273.59 123.145ZM1269.28 115.957C1268.19 117.157 1266.92 118.192 1265.53 119.026C1264.36 117.383 1262.94 115.942 1261.31 114.76C1262.64 114.369 1264.05 114.274 1265.43 114.481C1266.81 114.687 1268.13 115.191 1269.29 115.957H1269.28ZM1259.37 115.565C1261.16 116.691 1262.71 118.145 1263.96 119.85C1261.78 120.856 1259.4 121.377 1257 121.375C1256.26 121.375 1255.52 121.325 1254.78 121.227C1255.51 118.814 1257.16 116.782 1259.37 115.565ZM1254.38 124C1254.37 123.648 1254.39 123.296 1254.43 122.946C1255.28 123.065 1256.14 123.125 1257 123.125C1259.74 123.128 1262.46 122.515 1264.93 121.331C1265.48 122.274 1265.93 123.267 1266.28 124.299C1265.35 124.648 1264.45 125.072 1263.59 125.567C1261.19 126.954 1259.13 128.863 1257.57 131.152C1256.56 130.251 1255.76 129.148 1255.21 127.916C1254.66 126.684 1254.37 125.349 1254.38 124ZM1258.97 132.203C1260.39 130.103 1262.27 128.353 1264.46 127.085C1265.2 126.662 1265.96 126.296 1266.76 125.992C1267.03 127.193 1267.16 128.421 1267.16 129.653C1267.16 130.85 1267.04 132.044 1266.78 133.214C1265.48 133.606 1264.11 133.719 1262.77 133.545C1261.42 133.371 1260.13 132.914 1258.97 132.203ZM1268.71 132.392C1268.84 131.487 1268.91 130.573 1268.91 129.658C1268.91 128.241 1268.75 126.83 1268.43 125.45C1269.84 125.07 1271.29 124.876 1272.75 124.875C1273.03 124.875 1273.3 124.882 1273.58 124.896C1273.44 126.446 1272.92 127.937 1272.07 129.243C1271.22 130.548 1270.07 131.628 1268.71 132.391V132.392Z" fill="black"/>
</g>
<path d="M937.4 54V39.6H941.91C942.043 39.6 942.29 39.6033 942.65 39.61C943.017 39.6167 943.367 39.6433 943.7 39.69C944.827 39.83 945.773 40.2333 946.54 40.9C947.313 41.5667 947.897 42.4133 948.29 43.44C948.683 44.46 948.88 45.58 948.88 46.8C948.88 48.0267 948.683 49.1533 948.29 50.18C947.897 51.2 947.313 52.0433 946.54 52.71C945.773 53.37 944.827 53.77 943.7 53.91C943.367 53.9567 943.017 53.9833 942.65 53.99C942.29 53.9967 942.043 54 941.91 54H937.4ZM939.54 52.01H941.91C942.137 52.01 942.407 52.0033 942.72 51.99C943.033 51.9767 943.31 51.95 943.55 51.91C944.283 51.77 944.877 51.4533 945.33 50.96C945.79 50.46 946.127 49.8467 946.34 49.12C946.553 48.3933 946.66 47.62 946.66 46.8C946.66 45.9533 946.55 45.17 946.33 44.45C946.11 43.7233 945.77 43.1167 945.31 42.63C944.857 42.1367 944.27 41.8233 943.55 41.69C943.31 41.6433 943.03 41.6167 942.71 41.61C942.397 41.5967 942.13 41.59 941.91 41.59H939.54V52.01ZM950.409 54V43.2H952.269V45.82L952.009 45.48C952.142 45.1333 952.315 44.8167 952.529 44.53C952.742 44.2367 952.989 43.9967 953.269 43.81C953.542 43.61 953.845 43.4567 954.179 43.35C954.519 43.2367 954.865 43.17 955.219 43.15C955.572 43.1233 955.912 43.14 956.239 43.2V45.16C955.885 45.0667 955.492 45.04 955.059 45.08C954.632 45.12 954.239 45.2567 953.879 45.49C953.539 45.71 953.269 45.9767 953.069 46.29C952.875 46.6033 952.735 46.9533 952.649 47.34C952.562 47.72 952.519 48.1233 952.519 48.55V54H950.409ZM957.543 41.43V39.4H959.633V41.43H957.543ZM957.543 54V43.2H959.633V54H957.543ZM966.906 54.3C965.873 54.3 965.006 54.05 964.306 53.55C963.606 53.0433 963.076 52.36 962.716 51.5C962.356 50.64 962.176 49.67 962.176 48.59C962.176 47.51 962.353 46.54 962.706 45.68C963.066 44.82 963.593 44.1433 964.286 43.65C964.986 43.15 965.846 42.9 966.866 42.9C967.879 42.9 968.753 43.15 969.486 43.65C970.226 44.1433 970.796 44.82 971.196 45.68C971.596 46.5333 971.796 47.5033 971.796 48.59C971.796 49.67 971.596 50.6433 971.196 51.51C970.803 52.37 970.239 53.05 969.506 53.55C968.779 54.05 967.913 54.3 966.906 54.3ZM961.826 54V39.6H963.926V46.23H963.686V54H961.826ZM966.616 52.41C967.283 52.41 967.833 52.24 968.266 51.9C968.706 51.56 969.033 51.1033 969.246 50.53C969.466 49.95 969.576 49.3033 969.576 48.59C969.576 47.8833 969.466 47.2433 969.246 46.67C969.033 46.0967 968.703 45.64 968.256 45.3C967.809 44.96 967.239 44.79 966.546 44.79C965.893 44.79 965.353 44.95 964.926 45.27C964.506 45.59 964.193 46.0367 963.986 46.61C963.786 47.1833 963.686 47.8433 963.686 48.59C963.686 49.3367 963.786 49.9967 963.986 50.57C964.186 51.1433 964.503 51.5933 964.936 51.92C965.369 52.2467 965.929 52.41 966.616 52.41ZM978.274 54.3C977.241 54.3 976.374 54.05 975.674 53.55C974.974 53.0433 974.444 52.36 974.084 51.5C973.724 50.64 973.544 49.67 973.544 48.59C973.544 47.51 973.721 46.54 974.074 45.68C974.434 44.82 974.961 44.1433 975.654 43.65C976.354 43.15 977.214 42.9 978.234 42.9C979.247 42.9 980.121 43.15 980.854 43.65C981.594 44.1433 982.164 44.82 982.564 45.68C982.964 46.5333 983.164 47.5033 983.164 48.59C983.164 49.67 982.964 50.6433 982.564 51.51C982.171 52.37 981.607 53.05 980.874 53.55C980.147 54.05 979.281 54.3 978.274 54.3ZM973.194 54V39.6H975.294V46.23H975.054V54H973.194ZM977.984 52.41C978.651 52.41 979.201 52.24 979.634 51.9C980.074 51.56 980.401 51.1033 980.614 50.53C980.834 49.95 980.944 49.3033 980.944 48.59C980.944 47.8833 980.834 47.2433 980.614 46.67C980.401 46.0967 980.071 45.64 979.624 45.3C979.177 44.96 978.607 44.79 977.914 44.79C977.261 44.79 976.721 44.95 976.294 45.27C975.874 45.59 975.561 46.0367 975.354 46.61C975.154 47.1833 975.054 47.8433 975.054 48.59C975.054 49.3367 975.154 49.9967 975.354 50.57C975.554 51.1433 975.871 51.5933 976.304 51.92C976.737 52.2467 977.297 52.41 977.984 52.41ZM984.772 54V39.3H986.862V54H984.772ZM993.855 54.3C992.782 54.3 991.838 54.0667 991.025 53.6C990.218 53.1267 989.588 52.47 989.135 51.63C988.688 50.7833 988.465 49.8033 988.465 48.69C988.465 47.51 988.685 46.4867 989.125 45.62C989.572 44.7533 990.192 44.0833 990.985 43.61C991.778 43.1367 992.702 42.9 993.755 42.9C994.855 42.9 995.792 43.1567 996.565 43.67C997.338 44.1767 997.915 44.9 998.295 45.84C998.682 46.78 998.835 47.8967 998.755 49.19H996.665V48.43C996.652 47.1767 996.412 46.25 995.945 45.65C995.485 45.05 994.782 44.75 993.835 44.75C992.788 44.75 992.002 45.08 991.475 45.74C990.948 46.4 990.685 47.3533 990.685 48.6C990.685 49.7867 990.948 50.7067 991.475 51.36C992.002 52.0067 992.762 52.33 993.755 52.33C994.408 52.33 994.972 52.1833 995.445 51.89C995.925 51.59 996.298 51.1633 996.565 50.61L998.615 51.26C998.195 52.2267 997.558 52.9767 996.705 53.51C995.852 54.0367 994.902 54.3 993.855 54.3ZM990.005 49.19V47.56H997.715V49.19H990.005Z" fill="#2F2F2F"/>
<defs>
<clipPath id="clip0_0_102">
<rect width="22" height="22" fill="white" transform="translate(805 113)"/>
</clipPath>
</defs>
</svg>
