<svg width="243" height="34" viewBox="0 0 243 34" fill="none" xmlns="http://www.w3.org/2000/svg">
<path d="M4.647 25V4.43L0.0400001 7.235V3.274L4.647 0.519999H8.268V25H4.647ZM23.7338 25V20.733H12.6838V17.367L20.6398 0.519999H24.7028L16.7468 17.367H23.7338V10.737H27.3378V17.367H29.7688V20.733H27.3378V25H23.7338ZM44.1247 0.519999H47.7117L41.1837 25H37.5967L44.1247 0.519999Z" fill="#82FF1F"/>
<path d="M64.8533 25.51C63.0966 25.51 61.6233 25.085 60.4333 24.235C59.2433 23.3737 58.3423 22.212 57.7303 20.75C57.1183 19.288 56.8123 17.639 56.8123 15.803C56.8123 13.967 57.1126 12.318 57.7133 10.856C58.3253 9.394 59.2206 8.24367 60.3993 7.405C61.5893 6.555 63.0513 6.13 64.7853 6.13C66.508 6.13 67.9926 6.555 69.2393 7.405C70.4973 8.24367 71.4663 9.394 72.1463 10.856C72.8263 12.3067 73.1663 13.9557 73.1663 15.803C73.1663 17.639 72.8263 19.2937 72.1463 20.767C71.4776 22.229 70.52 23.385 69.2733 24.235C68.038 25.085 66.5646 25.51 64.8533 25.51ZM56.2173 33.16V6.64H59.3793V19.849H59.7873V33.16H56.2173ZM64.3603 22.297C65.4936 22.297 66.4286 22.008 67.1653 21.43C67.9133 20.852 68.4686 20.0757 68.8313 19.101C69.2053 18.115 69.3923 17.0157 69.3923 15.803C69.3923 14.6017 69.2053 13.5137 68.8313 12.539C68.4686 11.5643 67.9076 10.788 67.1483 10.21C66.389 9.632 65.42 9.343 64.2413 9.343C63.1306 9.343 62.2126 9.615 61.4873 10.159C60.7733 10.703 60.2406 11.4623 59.8893 12.437C59.5493 13.4117 59.3793 14.5337 59.3793 15.803C59.3793 17.0723 59.5493 18.1943 59.8893 19.169C60.2293 20.1437 60.7676 20.9087 61.5043 21.464C62.241 22.0193 63.193 22.297 64.3603 22.297ZM75.5598 25V6.64H78.7218V11.094L78.2798 10.516C78.5065 9.92667 78.8012 9.38833 79.1638 8.901C79.5265 8.40233 79.9458 7.99433 80.4218 7.677C80.8865 7.337 81.4022 7.07633 81.9688 6.895C82.5468 6.70233 83.1362 6.589 83.7368 6.555C84.3375 6.50967 84.9155 6.538 85.4708 6.64V9.972C84.8702 9.81333 84.2015 9.768 83.4648 9.836C82.7395 9.904 82.0708 10.1363 81.4588 10.533C80.8808 10.907 80.4218 11.3603 80.0818 11.893C79.7532 12.4257 79.5152 13.0207 79.3678 13.678C79.2205 14.324 79.1468 15.0097 79.1468 15.735V25H75.5598ZM94.9893 25.51C93.1533 25.51 91.5609 25.0963 90.2123 24.269C88.8636 23.4417 87.8209 22.3027 87.0843 20.852C86.3589 19.39 85.9963 17.707 85.9963 15.803C85.9963 13.8877 86.3703 12.2047 87.1183 10.754C87.8663 9.292 88.9146 8.15867 90.2633 7.354C91.6119 6.538 93.1873 6.13 94.9893 6.13C96.8253 6.13 98.4176 6.54367 99.7663 7.371C101.115 8.19833 102.158 9.33733 102.894 10.788C103.631 12.2387 103.999 13.9103 103.999 15.803C103.999 17.7183 103.625 19.407 102.877 20.869C102.141 22.3197 101.098 23.4587 99.7493 24.286C98.4006 25.102 96.8139 25.51 94.9893 25.51ZM94.9893 22.161C96.7459 22.161 98.0549 21.5717 98.9163 20.393C99.7889 19.203 100.225 17.673 100.225 15.803C100.225 13.8877 99.7833 12.3577 98.8993 11.213C98.0266 10.057 96.7233 9.479 94.9893 9.479C93.7993 9.479 92.8189 9.751 92.0483 10.295C91.2776 10.8277 90.7053 11.57 90.3313 12.522C89.9573 13.4627 89.7703 14.5563 89.7703 15.803C89.7703 17.7297 90.2123 19.271 91.0963 20.427C91.9803 21.583 93.2779 22.161 94.9893 22.161ZM103.655 33.16V29.794H104.59C105.531 29.794 106.216 29.5673 106.647 29.114C107.089 28.6607 107.31 27.9637 107.31 27.023V6.64H110.88V28.468C110.88 29.964 110.466 31.12 109.639 31.936C108.823 32.752 107.65 33.16 106.12 33.16H103.655ZM107.31 3.631V0.179999H110.88V3.631H107.31ZM122.521 25.51C120.697 25.51 119.093 25.1133 117.71 24.32C116.339 23.5153 115.268 22.399 114.497 20.971C113.738 19.5317 113.358 17.8657 113.358 15.973C113.358 13.967 113.732 12.2273 114.48 10.754C115.24 9.28067 116.294 8.14167 117.642 7.337C118.991 6.53233 120.561 6.13 122.351 6.13C124.221 6.13 125.814 6.56633 127.128 7.439C128.443 8.30033 129.423 9.53 130.069 11.128C130.727 12.726 130.987 14.6243 130.851 16.823H127.298V15.531C127.276 13.4003 126.868 11.825 126.074 10.805C125.292 9.785 124.097 9.275 122.487 9.275C120.708 9.275 119.371 9.836 118.475 10.958C117.58 12.08 117.132 13.7007 117.132 15.82C117.132 17.8373 117.58 19.4013 118.475 20.512C119.371 21.6113 120.663 22.161 122.351 22.161C123.462 22.161 124.42 21.9117 125.224 21.413C126.04 20.903 126.675 20.1777 127.128 19.237L130.613 20.342C129.899 21.9853 128.817 23.2603 127.366 24.167C125.916 25.0623 124.301 25.51 122.521 25.51ZM115.976 16.823V14.052H129.083V16.823H115.976ZM141.159 25.51C139.278 25.51 137.68 25.0907 136.365 24.252C135.051 23.4133 134.042 22.263 133.339 20.801C132.648 19.339 132.297 17.6787 132.285 15.82C132.297 13.9273 132.659 12.2557 133.373 10.805C134.087 9.343 135.107 8.19833 136.433 7.371C137.759 6.54367 139.352 6.13 141.21 6.13C143.216 6.13 144.928 6.62867 146.344 7.626C147.772 8.62333 148.713 9.989 149.166 11.723L145.63 12.743C145.279 11.7117 144.701 10.9127 143.896 10.346C143.103 9.768 142.191 9.479 141.159 9.479C139.992 9.479 139.034 9.75667 138.286 10.312C137.538 10.856 136.983 11.604 136.62 12.556C136.258 13.508 136.071 14.596 136.059 15.82C136.071 17.7127 136.501 19.2427 137.351 20.41C138.213 21.5773 139.482 22.161 141.159 22.161C142.304 22.161 143.228 21.9003 143.93 21.379C144.644 20.8463 145.188 20.087 145.562 19.101L149.166 19.951C148.566 21.7417 147.574 23.1187 146.191 24.082C144.809 25.034 143.131 25.51 141.159 25.51ZM161.776 25C160.62 25.2267 159.486 25.323 158.376 25.289C157.265 25.255 156.273 25.0397 155.401 24.643C154.528 24.2463 153.871 23.623 153.429 22.773C153.032 22.0137 152.817 21.243 152.783 20.461C152.76 19.6677 152.749 18.7723 152.749 17.775V1.54H156.319V17.605C156.319 18.3417 156.324 18.982 156.336 19.526C156.358 20.07 156.477 20.529 156.693 20.903C157.101 21.6057 157.747 22.008 158.631 22.11C159.526 22.2007 160.574 22.161 161.776 21.991V25ZM149.23 9.496V6.64H161.776V9.496H149.23ZM171.308 25.493C169.075 25.493 167.256 25 165.851 24.014C164.445 23.028 163.584 21.6397 163.267 19.849L166.905 19.288C167.131 20.24 167.653 20.9937 168.469 21.549C169.296 22.093 170.322 22.365 171.546 22.365C172.656 22.365 173.523 22.1383 174.147 21.685C174.781 21.2317 175.099 20.6083 175.099 19.815C175.099 19.3503 174.985 18.9763 174.759 18.693C174.543 18.3983 174.084 18.1207 173.382 17.86C172.679 17.5993 171.608 17.2763 170.169 16.891C168.593 16.483 167.341 16.0467 166.412 15.582C165.494 15.106 164.836 14.5563 164.44 13.933C164.054 13.2983 163.862 12.5333 163.862 11.638C163.862 10.5273 164.156 9.55833 164.746 8.731C165.335 7.90367 166.162 7.26333 167.228 6.81C168.304 6.35667 169.562 6.13 171.002 6.13C172.407 6.13 173.659 6.351 174.759 6.793C175.858 7.235 176.748 7.864 177.428 8.68C178.108 9.48467 178.516 10.431 178.652 11.519L175.014 12.182C174.889 11.298 174.475 10.601 173.773 10.091C173.07 9.581 172.158 9.30333 171.036 9.258C169.959 9.21267 169.086 9.394 168.418 9.802C167.749 10.1987 167.415 10.7483 167.415 11.451C167.415 11.859 167.539 12.2047 167.789 12.488C168.049 12.7713 168.548 13.0433 169.285 13.304C170.021 13.5647 171.109 13.8763 172.549 14.239C174.09 14.6357 175.314 15.0777 176.221 15.565C177.127 16.041 177.773 16.6133 178.159 17.282C178.555 17.9393 178.754 18.7383 178.754 19.679C178.754 21.4923 178.091 22.9147 176.765 23.946C175.45 24.9773 173.631 25.493 171.308 25.493ZM188.285 25V5.994C188.285 5.52933 188.302 5.03633 188.336 4.515C188.37 3.98233 188.466 3.461 188.625 2.951C188.795 2.42967 189.072 1.95367 189.458 1.523C189.922 1.013 190.432 0.650332 190.988 0.434999C191.543 0.219665 192.093 0.0949981 192.637 0.0609978C193.192 0.026999 193.702 0.00999951 194.167 0.00999951H196.479V2.934H194.337C193.498 2.934 192.869 3.14367 192.45 3.563C192.042 3.971 191.838 4.55467 191.838 5.314V25H188.285ZM185.242 9.496V6.64H196.479V9.496H185.242ZM200.049 3.631V0.179999H203.602V3.631H200.049ZM200.049 25V6.64H203.602V25H200.049ZM220.241 25V15.973C220.241 15.259 220.179 14.528 220.054 13.78C219.941 13.0207 219.714 12.318 219.374 11.672C219.045 11.026 218.575 10.5047 217.963 10.108C217.362 9.71133 216.575 9.513 215.6 9.513C214.965 9.513 214.365 9.62067 213.798 9.836C213.231 10.04 212.733 10.3743 212.302 10.839C211.883 11.3037 211.548 11.9157 211.299 12.675C211.061 13.4343 210.942 14.358 210.942 15.446L208.732 14.613C208.732 12.947 209.044 11.4793 209.667 10.21C210.29 8.92933 211.186 7.932 212.353 7.218C213.52 6.504 214.931 6.147 216.586 6.147C217.855 6.147 218.921 6.351 219.782 6.759C220.643 7.167 221.34 7.70533 221.873 8.374C222.417 9.03133 222.831 9.751 223.114 10.533C223.397 11.315 223.59 12.08 223.692 12.828C223.794 13.576 223.845 14.2333 223.845 14.8V25H220.241ZM207.338 25V6.64H210.517V11.944H210.942V25H207.338ZM227.253 3.631V0.179999H230.806V3.631H227.253ZM227.253 25V6.64H230.806V25H227.253ZM241.572 25.493C239.339 25.493 237.52 25 236.115 24.014C234.71 23.028 233.848 21.6397 233.531 19.849L237.169 19.288C237.396 20.24 237.917 20.9937 238.733 21.549C239.56 22.093 240.586 22.365 241.81 22.365C242.921 22.365 243.788 22.1383 244.411 21.685C245.046 21.2317 245.363 20.6083 245.363 19.815C245.363 19.3503 245.25 18.9763 245.023 18.693C244.808 18.3983 244.349 18.1207 243.646 17.86C242.943 17.5993 241.872 17.2763 240.433 16.891C238.858 16.483 237.605 16.0467 236.676 15.582C235.758 15.106 235.101 14.5563 234.704 13.933C234.319 13.2983 234.126 12.5333 234.126 11.638C234.126 10.5273 234.421 9.55833 235.01 8.731C235.599 7.90367 236.427 7.26333 237.492 6.81C238.569 6.35667 239.827 6.13 241.266 6.13C242.671 6.13 243.924 6.351 245.023 6.793C246.122 7.235 247.012 7.864 247.692 8.68C248.372 9.48467 248.78 10.431 248.916 11.519L245.278 12.182C245.153 11.298 244.74 10.601 244.037 10.091C243.334 9.581 242.422 9.30333 241.3 9.258C240.223 9.21267 239.351 9.394 238.682 9.802C238.013 10.1987 237.679 10.7483 237.679 11.451C237.679 11.859 237.804 12.2047 238.053 12.488C238.314 12.7713 238.812 13.0433 239.549 13.304C240.286 13.5647 241.374 13.8763 242.813 14.239C244.354 14.6357 245.578 15.0777 246.485 15.565C247.392 16.041 248.038 16.6133 248.423 17.282C248.82 17.9393 249.018 18.7383 249.018 19.679C249.018 21.4923 248.355 22.9147 247.029 23.946C245.714 24.9773 243.895 25.493 241.572 25.493ZM264.306 25V15.973C264.306 15.259 264.243 14.528 264.119 13.78C264.005 13.0207 263.779 12.318 263.439 11.672C263.11 11.026 262.64 10.5047 262.028 10.108C261.427 9.71133 260.639 9.513 259.665 9.513C259.03 9.513 258.429 9.62067 257.863 9.836C257.296 10.04 256.797 10.3743 256.367 10.839C255.947 11.3037 255.613 11.9157 255.364 12.675C255.126 13.4343 255.007 14.358 255.007 15.446L252.797 14.613C252.797 12.947 253.108 11.4793 253.732 10.21C254.355 8.92933 255.25 7.932 256.418 7.218C257.585 6.504 258.996 6.147 260.651 6.147C261.92 6.147 262.985 6.351 263.847 6.759C264.708 7.167 265.405 7.70533 265.938 8.374C266.482 9.03133 266.895 9.751 267.179 10.533C267.462 11.315 267.655 12.08 267.757 12.828C267.859 13.576 267.91 14.2333 267.91 14.8V25H264.306ZM251.403 25V0.519999H254.582V13.729H255.007V25H251.403ZM279.121 25.51C277.296 25.51 275.692 25.1133 274.31 24.32C272.938 23.5153 271.867 22.399 271.097 20.971C270.337 19.5317 269.958 17.8657 269.958 15.973C269.958 13.967 270.332 12.2273 271.08 10.754C271.839 9.28067 272.893 8.14167 274.242 7.337C275.59 6.53233 277.16 6.13 278.951 6.13C280.821 6.13 282.413 6.56633 283.728 7.439C285.042 8.30033 286.023 9.53 286.669 11.128C287.326 12.726 287.587 14.6243 287.451 16.823H283.898V15.531C283.875 13.4003 283.467 11.825 282.674 10.805C281.892 9.785 280.696 9.275 279.087 9.275C277.307 9.275 275.97 9.836 275.075 10.958C274.179 12.08 273.732 13.7007 273.732 15.82C273.732 17.8373 274.179 19.4013 275.075 20.512C275.97 21.6113 277.262 22.161 278.951 22.161C280.061 22.161 281.019 21.9117 281.824 21.413C282.64 20.903 283.274 20.1777 283.728 19.237L287.213 20.342C286.499 21.9853 285.416 23.2603 283.966 24.167C282.515 25.0623 280.9 25.51 279.121 25.51ZM272.576 16.823V14.052H285.683V16.823H272.576ZM297.198 25.51C295.486 25.51 294.007 25.085 292.761 24.235C291.525 23.385 290.568 22.229 289.888 20.767C289.219 19.2937 288.885 17.639 288.885 15.803C288.885 13.9557 289.225 12.3067 289.905 10.856C290.585 9.394 291.548 8.24367 292.795 7.405C294.053 6.555 295.543 6.13 297.266 6.13C299 6.13 300.456 6.555 301.635 7.405C302.825 8.24367 303.72 9.394 304.321 10.856C304.933 12.318 305.239 13.967 305.239 15.803C305.239 17.639 304.933 19.288 304.321 20.75C303.709 22.212 302.808 23.3737 301.618 24.235C300.428 25.085 298.954 25.51 297.198 25.51ZM297.691 22.297C298.858 22.297 299.81 22.0193 300.547 21.464C301.283 20.9087 301.822 20.1437 302.162 19.169C302.502 18.1943 302.672 17.0723 302.672 15.803C302.672 14.5337 302.496 13.4117 302.145 12.437C301.805 11.4623 301.272 10.703 300.547 10.159C299.833 9.615 298.92 9.343 297.81 9.343C296.631 9.343 295.662 9.632 294.903 10.21C294.143 10.788 293.577 11.5643 293.203 12.539C292.84 13.5137 292.659 14.6017 292.659 15.803C292.659 17.0157 292.84 18.115 293.203 19.101C293.577 20.0757 294.132 20.852 294.869 21.43C295.617 22.008 296.557 22.297 297.691 22.297ZM302.672 25V11.791H302.264V0.519999H305.834V25H302.672Z" fill="white"/>
</svg>
