<svg width="292" height="26" viewBox="0 0 292 26" fill="none" xmlns="http://www.w3.org/2000/svg">
<path d="M4.647 25V4.43L0.0400001 7.235V3.274L4.647 0.519999H8.268V25H4.647ZM21.2008 25.51C19.6028 25.51 18.1861 25.1927 16.9508 24.558C15.7268 23.912 14.7634 23.0167 14.0608 21.872C13.3694 20.7273 13.0238 19.4013 13.0238 17.894C13.0238 16.4887 13.3524 15.2023 14.0098 14.035C14.6671 12.8677 15.6474 11.9497 16.9508 11.281L16.8828 12.505C15.8401 11.859 15.0354 11.0543 14.4688 10.091C13.9134 9.11633 13.6358 8.02833 13.6358 6.827C13.6358 5.433 13.9588 4.226 14.6048 3.206C15.2508 2.186 16.1404 1.39833 17.2738 0.842998C18.4184 0.287666 19.7274 0.00999951 21.2008 0.00999951C22.6741 0.00999951 23.9774 0.287666 25.1108 0.842998C26.2441 1.39833 27.1338 2.186 27.7798 3.206C28.4258 4.226 28.7488 5.433 28.7488 6.827C28.7488 8.02833 28.4824 9.11067 27.9498 10.074C27.4171 11.0373 26.6011 11.8477 25.5018 12.505L25.4508 11.315C26.7428 11.9497 27.7231 12.8563 28.3918 14.035C29.0604 15.2023 29.3948 16.4887 29.3948 17.894C29.3948 19.4013 29.0434 20.7273 28.3408 21.872C27.6381 23.0167 26.6691 23.912 25.4338 24.558C24.1984 25.1927 22.7874 25.51 21.2008 25.51ZM21.2008 22.127C22.5154 22.127 23.5808 21.77 24.3968 21.056C25.2128 20.3307 25.6208 19.2767 25.6208 17.894C25.6208 16.5113 25.2128 15.4573 24.3968 14.732C23.5921 13.9953 22.5268 13.627 21.2008 13.627C19.8748 13.627 18.8038 13.9953 17.9878 14.732C17.1831 15.4573 16.7808 16.5113 16.7808 17.894C16.7808 19.2767 17.1888 20.3307 18.0048 21.056C18.8208 21.77 19.8861 22.127 21.2008 22.127ZM21.2008 10.227C22.3228 10.227 23.2294 9.94933 23.9208 9.394C24.6234 8.82733 24.9748 7.97167 24.9748 6.827C24.9748 5.68233 24.6234 4.82667 23.9208 4.26C23.2294 3.682 22.3228 3.393 21.2008 3.393C20.0788 3.393 19.1664 3.682 18.4638 4.26C17.7611 4.82667 17.4098 5.68233 17.4098 6.827C17.4098 7.97167 17.7611 8.82733 18.4638 9.394C19.1664 9.94933 20.0788 10.227 21.2008 10.227ZM44.0915 0.519999H47.6785L41.1505 25H37.5635L44.0915 0.519999Z" fill="#82FF1F"/>
<path d="M63.2221 25.493C60.9894 25.493 59.1704 25 57.7651 24.014C56.3598 23.028 55.4984 21.6397 55.1811 19.849L58.8191 19.288C59.0458 20.24 59.5671 20.9937 60.3831 21.549C61.2104 22.093 62.2361 22.365 63.4601 22.365C64.5708 22.365 65.4378 22.1383 66.0611 21.685C66.6958 21.2317 67.0131 20.6083 67.0131 19.815C67.0131 19.3503 66.8998 18.9763 66.6731 18.693C66.4578 18.3983 65.9988 18.1207 65.2961 17.86C64.5934 17.5993 63.5224 17.2763 62.0831 16.891C60.5078 16.483 59.2554 16.0467 58.3261 15.582C57.4081 15.106 56.7508 14.5563 56.3541 13.933C55.9688 13.2983 55.7761 12.5333 55.7761 11.638C55.7761 10.5273 56.0708 9.55833 56.6601 8.731C57.2494 7.90367 58.0768 7.26333 59.1421 6.81C60.2188 6.35667 61.4768 6.13 62.9161 6.13C64.3214 6.13 65.5738 6.351 66.6731 6.793C67.7724 7.235 68.6621 7.864 69.3421 8.68C70.0221 9.48467 70.4301 10.431 70.5661 11.519L66.9281 12.182C66.8034 11.298 66.3898 10.601 65.6871 10.091C64.9844 9.581 64.0721 9.30333 62.9501 9.258C61.8734 9.21267 61.0008 9.394 60.3321 9.802C59.6634 10.1987 59.3291 10.7483 59.3291 11.451C59.3291 11.859 59.4538 12.2047 59.7031 12.488C59.9638 12.7713 60.4624 13.0433 61.1991 13.304C61.9358 13.5647 63.0238 13.8763 64.4631 14.239C66.0044 14.6357 67.2284 15.0777 68.1351 15.565C69.0418 16.041 69.6878 16.6133 70.0731 17.282C70.4698 17.9393 70.6681 18.7383 70.6681 19.679C70.6681 21.4923 70.0051 22.9147 68.6791 23.946C67.3644 24.9773 65.5454 25.493 63.2221 25.493ZM78.2546 25.51C76.8946 25.51 75.7556 25.2607 74.8376 24.762C73.9196 24.252 73.2226 23.5833 72.7466 22.756C72.2819 21.9173 72.0496 20.9993 72.0496 20.002C72.0496 19.0727 72.2139 18.2567 72.5426 17.554C72.8713 16.8513 73.3586 16.2563 74.0046 15.769C74.6506 15.2703 75.4439 14.868 76.3846 14.562C77.2006 14.324 78.1243 14.1143 79.1556 13.933C80.1869 13.7517 81.2693 13.5817 82.4026 13.423C83.5473 13.2643 84.6806 13.1057 85.8026 12.947L84.5106 13.661C84.5333 12.2217 84.2273 11.1563 83.5926 10.465C82.9693 9.76233 81.8926 9.411 80.3626 9.411C79.3993 9.411 78.5153 9.63767 77.7106 10.091C76.9059 10.533 76.3449 11.2697 76.0276 12.301L72.7126 11.281C73.1659 9.70567 74.0273 8.45333 75.2966 7.524C76.5773 6.59467 78.2773 6.13 80.3966 6.13C82.0399 6.13 83.4679 6.41333 84.6806 6.98C85.9046 7.53533 86.7999 8.41933 87.3666 9.632C87.6613 10.2327 87.8426 10.8673 87.9106 11.536C87.9786 12.2047 88.0126 12.9243 88.0126 13.695V25H84.8676V20.801L85.4796 21.345C84.7203 22.7503 83.7513 23.7987 82.5726 24.49C81.4053 25.17 79.9659 25.51 78.2546 25.51ZM78.8836 22.603C79.8923 22.603 80.7593 22.4273 81.4846 22.076C82.2099 21.7133 82.7936 21.2543 83.2356 20.699C83.6776 20.1437 83.9666 19.5657 84.1026 18.965C84.2953 18.421 84.4029 17.809 84.4256 17.129C84.4596 16.449 84.4766 15.905 84.4766 15.497L85.6326 15.922C84.5106 16.092 83.4906 16.245 82.5726 16.381C81.6546 16.517 80.8216 16.653 80.0736 16.789C79.3369 16.9137 78.6796 17.0667 78.1016 17.248C77.6143 17.418 77.1779 17.622 76.7926 17.86C76.4186 18.098 76.1183 18.387 75.8916 18.727C75.6763 19.067 75.5686 19.4807 75.5686 19.968C75.5686 20.444 75.6876 20.886 75.9256 21.294C76.1636 21.6907 76.5263 22.008 77.0136 22.246C77.5009 22.484 78.1243 22.603 78.8836 22.603ZM101.573 25C100.417 25.2267 99.2837 25.323 98.173 25.289C97.0624 25.255 96.0707 25.0397 95.198 24.643C94.3254 24.2463 93.668 23.623 93.226 22.773C92.8294 22.0137 92.614 21.243 92.58 20.461C92.5574 19.6677 92.546 18.7723 92.546 17.775V1.54H96.116V17.605C96.116 18.3417 96.1217 18.982 96.133 19.526C96.1557 20.07 96.2747 20.529 96.49 20.903C96.898 21.6057 97.544 22.008 98.428 22.11C99.3234 22.2007 100.372 22.161 101.573 21.991V25ZM89.027 9.496V6.64H101.573V9.496H89.027ZM104.424 3.631V0.179999H107.977V3.631H104.424ZM104.424 25V6.64H107.977V25H104.424ZM118.743 25.493C116.51 25.493 114.691 25 113.286 24.014C111.881 23.028 111.019 21.6397 110.702 19.849L114.34 19.288C114.567 20.24 115.088 20.9937 115.904 21.549C116.731 22.093 117.757 22.365 118.981 22.365C120.092 22.365 120.959 22.1383 121.582 21.685C122.217 21.2317 122.534 20.6083 122.534 19.815C122.534 19.3503 122.421 18.9763 122.194 18.693C121.979 18.3983 121.52 18.1207 120.817 17.86C120.114 17.5993 119.043 17.2763 117.604 16.891C116.029 16.483 114.776 16.0467 113.847 15.582C112.929 15.106 112.272 14.5563 111.875 13.933C111.49 13.2983 111.297 12.5333 111.297 11.638C111.297 10.5273 111.592 9.55833 112.181 8.731C112.77 7.90367 113.598 7.26333 114.663 6.81C115.74 6.35667 116.998 6.13 118.437 6.13C119.842 6.13 121.095 6.351 122.194 6.793C123.293 7.235 124.183 7.864 124.863 8.68C125.543 9.48467 125.951 10.431 126.087 11.519L122.449 12.182C122.324 11.298 121.911 10.601 121.208 10.091C120.505 9.581 119.593 9.30333 118.471 9.258C117.394 9.21267 116.522 9.394 115.853 9.802C115.184 10.1987 114.85 10.7483 114.85 11.451C114.85 11.859 114.975 12.2047 115.224 12.488C115.485 12.7713 115.983 13.0433 116.72 13.304C117.457 13.5647 118.545 13.8763 119.984 14.239C121.525 14.6357 122.749 15.0777 123.656 15.565C124.563 16.041 125.209 16.6133 125.594 17.282C125.991 17.9393 126.189 18.7383 126.189 19.679C126.189 21.4923 125.526 22.9147 124.2 23.946C122.885 24.9773 121.066 25.493 118.743 25.493ZM130.274 25V5.994C130.274 5.52933 130.291 5.03633 130.325 4.515C130.359 3.98233 130.455 3.461 130.614 2.951C130.784 2.42967 131.061 1.95367 131.447 1.523C131.911 1.013 132.421 0.650332 132.977 0.434999C133.532 0.219665 134.082 0.0949981 134.626 0.0609978C135.181 0.026999 135.691 0.00999951 136.156 0.00999951H138.468V2.934H136.326C135.487 2.934 134.858 3.14367 134.439 3.563C134.031 3.971 133.827 4.55467 133.827 5.314V25H130.274ZM127.231 9.496V6.64H138.468V9.496H127.231ZM142.038 3.631V0.179999H145.591V3.631H142.038ZM142.038 25V6.64H145.591V25H142.038ZM157.487 25.51C155.662 25.51 154.058 25.1133 152.676 24.32C151.304 23.5153 150.233 22.399 149.463 20.971C148.703 19.5317 148.324 17.8657 148.324 15.973C148.324 13.967 148.698 12.2273 149.446 10.754C150.205 9.28067 151.259 8.14167 152.608 7.337C153.956 6.53233 155.526 6.13 157.317 6.13C159.187 6.13 160.779 6.56633 162.094 7.439C163.408 8.30033 164.389 9.53 165.035 11.128C165.692 12.726 165.953 14.6243 165.817 16.823H162.264V15.531C162.241 13.4003 161.833 11.825 161.04 10.805C160.258 9.785 159.062 9.275 157.453 9.275C155.673 9.275 154.336 9.836 153.441 10.958C152.545 12.08 152.098 13.7007 152.098 15.82C152.098 17.8373 152.545 19.4013 153.441 20.512C154.336 21.6113 155.628 22.161 157.317 22.161C158.427 22.161 159.385 21.9117 160.19 21.413C161.006 20.903 161.64 20.1777 162.094 19.237L165.579 20.342C164.865 21.9853 163.782 23.2603 162.332 24.167C160.881 25.0623 159.266 25.51 157.487 25.51ZM150.942 16.823V14.052H164.049V16.823H150.942ZM175.564 25.51C173.853 25.51 172.374 25.085 171.127 24.235C169.892 23.385 168.934 22.229 168.254 20.767C167.585 19.2937 167.251 17.639 167.251 15.803C167.251 13.9557 167.591 12.3067 168.271 10.856C168.951 9.394 169.914 8.24367 171.161 7.405C172.419 6.555 173.909 6.13 175.632 6.13C177.366 6.13 178.822 6.555 180.001 7.405C181.191 8.24367 182.086 9.394 182.687 10.856C183.299 12.318 183.605 13.967 183.605 15.803C183.605 17.639 183.299 19.288 182.687 20.75C182.075 22.212 181.174 23.3737 179.984 24.235C178.794 25.085 177.321 25.51 175.564 25.51ZM176.057 22.297C177.224 22.297 178.176 22.0193 178.913 21.464C179.65 20.9087 180.188 20.1437 180.528 19.169C180.868 18.1943 181.038 17.0723 181.038 15.803C181.038 14.5337 180.862 13.4117 180.511 12.437C180.171 11.4623 179.638 10.703 178.913 10.159C178.199 9.615 177.287 9.343 176.176 9.343C174.997 9.343 174.028 9.632 173.269 10.21C172.51 10.788 171.943 11.5643 171.569 12.539C171.206 13.5137 171.025 14.6017 171.025 15.803C171.025 17.0157 171.206 18.115 171.569 19.101C171.943 20.0757 172.498 20.852 173.235 21.43C173.983 22.008 174.924 22.297 176.057 22.297ZM181.038 25V11.791H180.63V0.519999H184.2V25H181.038ZM200.897 25.51C199.016 25.51 197.418 25.0907 196.103 24.252C194.788 23.4133 193.78 22.263 193.077 20.801C192.386 19.339 192.034 17.6787 192.023 15.82C192.034 13.9273 192.397 12.2557 193.111 10.805C193.825 9.343 194.845 8.19833 196.171 7.371C197.497 6.54367 199.089 6.13 200.948 6.13C202.954 6.13 204.665 6.62867 206.082 7.626C207.51 8.62333 208.451 9.989 208.904 11.723L205.368 12.743C205.017 11.7117 204.439 10.9127 203.634 10.346C202.841 9.768 201.928 9.479 200.897 9.479C199.73 9.479 198.772 9.75667 198.024 10.312C197.276 10.856 196.721 11.604 196.358 12.556C195.995 13.508 195.808 14.596 195.797 15.82C195.808 17.7127 196.239 19.2427 197.089 20.41C197.95 21.5773 199.22 22.161 200.897 22.161C202.042 22.161 202.965 21.9003 203.668 21.379C204.382 20.8463 204.926 20.087 205.3 19.101L208.904 19.951C208.303 21.7417 207.312 23.1187 205.929 24.082C204.546 25.034 202.869 25.51 200.897 25.51ZM210.849 25V0.00999951H214.402V25H210.849ZM218.487 3.631V0.179999H222.04V3.631H218.487ZM218.487 25V6.64H222.04V25H218.487ZM233.928 25.51C232.104 25.51 230.5 25.1133 229.117 24.32C227.746 23.5153 226.675 22.399 225.904 20.971C225.145 19.5317 224.765 17.8657 224.765 15.973C224.765 13.967 225.139 12.2273 225.887 10.754C226.647 9.28067 227.701 8.14167 229.049 7.337C230.398 6.53233 231.968 6.13 233.758 6.13C235.628 6.13 237.221 6.56633 238.535 7.439C239.85 8.30033 240.83 9.53 241.476 11.128C242.134 12.726 242.394 14.6243 242.258 16.823H238.705V15.531C238.683 13.4003 238.275 11.825 237.481 10.805C236.699 9.785 235.504 9.275 233.894 9.275C232.115 9.275 230.778 9.836 229.882 10.958C228.987 12.08 228.539 13.7007 228.539 15.82C228.539 17.8373 228.987 19.4013 229.882 20.512C230.778 21.6113 232.07 22.161 233.758 22.161C234.869 22.161 235.827 21.9117 236.631 21.413C237.447 20.903 238.082 20.1777 238.535 19.237L242.02 20.342C241.306 21.9853 240.224 23.2603 238.773 24.167C237.323 25.0623 235.708 25.51 233.928 25.51ZM227.383 16.823V14.052H240.49V16.823H227.383ZM257.1 25V15.973C257.1 15.259 257.038 14.528 256.913 13.78C256.8 13.0207 256.573 12.318 256.233 11.672C255.905 11.026 255.434 10.5047 254.822 10.108C254.222 9.71133 253.434 9.513 252.459 9.513C251.825 9.513 251.224 9.62067 250.657 9.836C250.091 10.04 249.592 10.3743 249.161 10.839C248.742 11.3037 248.408 11.9157 248.158 12.675C247.92 13.4343 247.801 14.358 247.801 15.446L245.591 14.613C245.591 12.947 245.903 11.4793 246.526 10.21C247.15 8.92933 248.045 7.932 249.212 7.218C250.38 6.504 251.791 6.147 253.445 6.147C254.715 6.147 255.78 6.351 256.641 6.759C257.503 7.167 258.2 7.70533 258.732 8.374C259.276 9.03133 259.69 9.751 259.973 10.533C260.257 11.315 260.449 12.08 260.551 12.828C260.653 13.576 260.704 14.2333 260.704 14.8V25H257.1ZM244.197 25V6.64H247.376V11.944H247.801V25H244.197ZM274.278 25C273.122 25.2267 271.989 25.323 270.878 25.289C269.768 25.255 268.776 25.0397 267.903 24.643C267.031 24.2463 266.373 23.623 265.931 22.773C265.535 22.0137 265.319 21.243 265.285 20.461C265.263 19.6677 265.251 18.7723 265.251 17.775V1.54H268.821V17.605C268.821 18.3417 268.827 18.982 268.838 19.526C268.861 20.07 268.98 20.529 269.195 20.903C269.603 21.6057 270.249 22.008 271.133 22.11C272.029 22.2007 273.077 22.161 274.278 21.991V25ZM261.732 9.496V6.64H274.278V9.496H261.732ZM283.81 25.493C281.578 25.493 279.759 25 278.353 24.014C276.948 23.028 276.087 21.6397 275.769 19.849L279.407 19.288C279.634 20.24 280.155 20.9937 280.971 21.549C281.799 22.093 282.824 22.365 284.048 22.365C285.159 22.365 286.026 22.1383 286.649 21.685C287.284 21.2317 287.601 20.6083 287.601 19.815C287.601 19.3503 287.488 18.9763 287.261 18.693C287.046 18.3983 286.587 18.1207 285.884 17.86C285.182 17.5993 284.111 17.2763 282.671 16.891C281.096 16.483 279.844 16.0467 278.914 15.582C277.996 15.106 277.339 14.5563 276.942 13.933C276.557 13.2983 276.364 12.5333 276.364 11.638C276.364 10.5273 276.659 9.55833 277.248 8.731C277.838 7.90367 278.665 7.26333 279.73 6.81C280.807 6.35667 282.065 6.13 283.504 6.13C284.91 6.13 286.162 6.351 287.261 6.793C288.361 7.235 289.25 7.864 289.93 8.68C290.61 9.48467 291.018 10.431 291.154 11.519L287.516 12.182C287.392 11.298 286.978 10.601 286.275 10.091C285.573 9.581 284.66 9.30333 283.538 9.258C282.462 9.21267 281.589 9.394 280.92 9.802C280.252 10.1987 279.917 10.7483 279.917 11.451C279.917 11.859 280.042 12.2047 280.291 12.488C280.552 12.7713 281.051 13.0433 281.787 13.304C282.524 13.5647 283.612 13.8763 285.051 14.239C286.593 14.6357 287.817 15.0777 288.723 15.565C289.63 16.041 290.276 16.6133 290.661 17.282C291.058 17.9393 291.256 18.7383 291.256 19.679C291.256 21.4923 290.593 22.9147 289.267 23.946C287.953 24.9773 286.134 25.493 283.81 25.493Z" fill="white"/>
</svg>
