<svg width="45" height="45" viewBox="0 0 45 45" fill="none" xmlns="http://www.w3.org/2000/svg">
<ellipse cx="22.5" cy="22.5" rx="22.5" ry="22.5" transform="rotate(-90 22.5 22.5)" fill="white"/>
<path d="M23 31.2501C23.1824 31.2501 23.3572 31.1776 23.4862 31.0487C23.6151 30.9198 23.6875 30.7449 23.6875 30.5626L23.6875 17.097L28.7011 22.1115C28.765 22.1753 28.8408 22.226 28.9243 22.2606C29.0077 22.2951 29.0972 22.3129 29.1875 22.3129C29.2778 22.3129 29.3673 22.2951 29.4508 22.2606C29.5342 22.226 29.61 22.1753 29.6739 22.1115C29.7378 22.0476 29.7885 21.9718 29.823 21.8883C29.8576 21.8048 29.8754 21.7154 29.8754 21.6251C29.8754 21.5347 29.8576 21.4453 29.823 21.3618C29.7885 21.2784 29.7378 21.2025 29.6739 21.1386L23.4864 14.9511C23.4226 14.8872 23.3467 14.8365 23.2633 14.8019C23.1798 14.7673 23.0904 14.7495 23 14.7495C22.9097 14.7495 22.8202 14.7673 22.7367 14.8019C22.6533 14.8365 22.5775 14.8872 22.5136 14.9511L16.3261 21.1386C16.1971 21.2676 16.1246 21.4426 16.1246 21.6251C16.1246 21.8075 16.1971 21.9825 16.3261 22.1115C16.4551 22.2405 16.6301 22.3129 16.8125 22.3129C16.995 22.3129 17.1699 22.2405 17.2989 22.1115L22.3125 17.097L22.3125 30.5626C22.3125 30.7449 22.3849 30.9198 22.5139 31.0487C22.6428 31.1776 22.8177 31.2501 23 31.2501Z" fill="#2F2F2F"/>
</svg>
