<svg width="350" height="34" viewBox="0 0 350 34" fill="none" xmlns="http://www.w3.org/2000/svg">
<path d="M8.217 25.51C6.619 25.51 5.20233 25.1927 3.967 24.558C2.743 23.912 1.77967 23.0167 1.077 21.872C0.385667 20.7273 0.0400001 19.4013 0.0400001 17.894C0.0400001 16.4887 0.368667 15.2023 1.026 14.035C1.68333 12.8677 2.66367 11.9497 3.967 11.281L3.899 12.505C2.85633 11.859 2.05167 11.0543 1.485 10.091C0.929667 9.11633 0.652 8.02833 0.652 6.827C0.652 5.433 0.975 4.226 1.621 3.206C2.267 2.186 3.15667 1.39833 4.29 0.842998C5.43467 0.287666 6.74367 0.00999951 8.217 0.00999951C9.69033 0.00999951 10.9937 0.287666 12.127 0.842998C13.2603 1.39833 14.15 2.186 14.796 3.206C15.442 4.226 15.765 5.433 15.765 6.827C15.765 8.02833 15.4987 9.11067 14.966 10.074C14.4333 11.0373 13.6173 11.8477 12.518 12.505L12.467 11.315C13.759 11.9497 14.7393 12.8563 15.408 14.035C16.0767 15.2023 16.411 16.4887 16.411 17.894C16.411 19.4013 16.0597 20.7273 15.357 21.872C14.6543 23.0167 13.6853 23.912 12.45 24.558C11.2147 25.1927 9.80367 25.51 8.217 25.51ZM8.217 22.127C9.53167 22.127 10.597 21.77 11.413 21.056C12.229 20.3307 12.637 19.2767 12.637 17.894C12.637 16.5113 12.229 15.4573 11.413 14.732C10.6083 13.9953 9.543 13.627 8.217 13.627C6.891 13.627 5.82 13.9953 5.004 14.732C4.19933 15.4573 3.797 16.5113 3.797 17.894C3.797 19.2767 4.205 20.3307 5.021 21.056C5.837 21.77 6.90233 22.127 8.217 22.127ZM8.217 10.227C9.339 10.227 10.2457 9.94933 10.937 9.394C11.6397 8.82733 11.991 7.97167 11.991 6.827C11.991 5.68233 11.6397 4.82667 10.937 4.26C10.2457 3.682 9.339 3.393 8.217 3.393C7.095 3.393 6.18267 3.682 5.48 4.26C4.77733 4.82667 4.426 5.68233 4.426 6.827C4.426 7.97167 4.77733 8.82733 5.48 9.394C6.18267 9.94933 7.095 10.227 8.217 10.227ZM25.4231 20.461V14.171H19.1331V11.315H25.4231V5.059H28.2791V11.315H34.5521V14.171H28.2791V20.461H25.4231ZM49.238 0.519999H52.825L46.297 25H42.71L49.238 0.519999Z" fill="#82FF1F"/>
<path d="M63.8296 33.16L67.3826 23.487L67.4336 26.343L59.4266 6.64H63.1326L69.1166 21.855H68.0286L73.7406 6.64H77.3446L67.2126 33.16H63.8296ZM86.1267 25.51C84.302 25.51 82.6983 25.1133 81.3157 24.32C79.9443 23.5153 78.8733 22.399 78.1027 20.971C77.3433 19.5317 76.9637 17.8657 76.9637 15.973C76.9637 13.967 77.3377 12.2273 78.0857 10.754C78.845 9.28067 79.899 8.14167 81.2477 7.337C82.5963 6.53233 84.166 6.13 85.9567 6.13C87.8267 6.13 89.419 6.56633 90.7337 7.439C92.0483 8.30033 93.0287 9.53 93.6747 11.128C94.332 12.726 94.5927 14.6243 94.4567 16.823H90.9037V15.531C90.881 13.4003 90.473 11.825 89.6797 10.805C88.8977 9.785 87.702 9.275 86.0927 9.275C84.3133 9.275 82.976 9.836 82.0807 10.958C81.1853 12.08 80.7377 13.7007 80.7377 15.82C80.7377 17.8373 81.1853 19.4013 82.0807 20.512C82.976 21.6113 84.268 22.161 85.9567 22.161C87.0673 22.161 88.025 21.9117 88.8297 21.413C89.6457 20.903 90.2803 20.1777 90.7337 19.237L94.2187 20.342C93.5047 21.9853 92.4223 23.2603 90.9717 24.167C89.521 25.0623 87.906 25.51 86.1267 25.51ZM79.5817 16.823V14.052H92.6887V16.823H79.5817ZM101.764 25.51C100.404 25.51 99.2648 25.2607 98.3468 24.762C97.4288 24.252 96.7318 23.5833 96.2558 22.756C95.7911 21.9173 95.5588 20.9993 95.5588 20.002C95.5588 19.0727 95.7231 18.2567 96.0518 17.554C96.3804 16.8513 96.8678 16.2563 97.5138 15.769C98.1598 15.2703 98.9531 14.868 99.8938 14.562C100.71 14.324 101.633 14.1143 102.665 13.933C103.696 13.7517 104.778 13.5817 105.912 13.423C107.056 13.2643 108.19 13.1057 109.312 12.947L108.02 13.661C108.042 12.2217 107.736 11.1563 107.102 10.465C106.478 9.76233 105.402 9.411 103.872 9.411C102.908 9.411 102.024 9.63767 101.22 10.091C100.415 10.533 99.8541 11.2697 99.5368 12.301L96.2218 11.281C96.6751 9.70567 97.5364 8.45333 98.8058 7.524C100.086 6.59467 101.786 6.13 103.906 6.13C105.549 6.13 106.977 6.41333 108.19 6.98C109.414 7.53533 110.309 8.41933 110.876 9.632C111.17 10.2327 111.352 10.8673 111.42 11.536C111.488 12.2047 111.522 12.9243 111.522 13.695V25H108.377V20.801L108.989 21.345C108.229 22.7503 107.26 23.7987 106.082 24.49C104.914 25.17 103.475 25.51 101.764 25.51ZM102.393 22.603C103.401 22.603 104.268 22.4273 104.994 22.076C105.719 21.7133 106.303 21.2543 106.745 20.699C107.187 20.1437 107.476 19.5657 107.612 18.965C107.804 18.421 107.912 17.809 107.935 17.129C107.969 16.449 107.986 15.905 107.986 15.497L109.142 15.922C108.02 16.092 107 16.245 106.082 16.381C105.164 16.517 104.331 16.653 103.583 16.789C102.846 16.9137 102.189 17.0667 101.611 17.248C101.123 17.418 100.687 17.622 100.302 17.86C99.9278 18.098 99.6274 18.387 99.4008 18.727C99.1854 19.067 99.0778 19.4807 99.0778 19.968C99.0778 20.444 99.1968 20.886 99.4348 21.294C99.6728 21.6907 100.035 22.008 100.523 22.246C101.01 22.484 101.633 22.603 102.393 22.603ZM114.576 25V6.64H117.738V11.094L117.296 10.516C117.523 9.92667 117.818 9.38833 118.18 8.901C118.543 8.40233 118.962 7.99433 119.438 7.677C119.903 7.337 120.419 7.07633 120.985 6.895C121.563 6.70233 122.153 6.589 122.753 6.555C123.354 6.50967 123.932 6.538 124.487 6.64V9.972C123.887 9.81333 123.218 9.768 122.481 9.836C121.756 9.904 121.087 10.1363 120.475 10.533C119.897 10.907 119.438 11.3603 119.098 11.893C118.77 12.4257 118.532 13.0207 118.384 13.678C118.237 14.324 118.163 15.0097 118.163 15.735V25H114.576ZM132.722 25.493C130.489 25.493 128.67 25 127.265 24.014C125.859 23.028 124.998 21.6397 124.681 19.849L128.319 19.288C128.545 20.24 129.067 20.9937 129.883 21.549C130.71 22.093 131.736 22.365 132.96 22.365C134.07 22.365 134.937 22.1383 135.561 21.685C136.195 21.2317 136.513 20.6083 136.513 19.815C136.513 19.3503 136.399 18.9763 136.173 18.693C135.957 18.3983 135.498 18.1207 134.796 17.86C134.093 17.5993 133.022 17.2763 131.583 16.891C130.007 16.483 128.755 16.0467 127.826 15.582C126.908 15.106 126.25 14.5563 125.854 13.933C125.468 13.2983 125.276 12.5333 125.276 11.638C125.276 10.5273 125.57 9.55833 126.16 8.731C126.749 7.90367 127.576 7.26333 128.642 6.81C129.718 6.35667 130.976 6.13 132.416 6.13C133.821 6.13 135.073 6.351 136.173 6.793C137.272 7.235 138.162 7.864 138.842 8.68C139.522 9.48467 139.93 10.431 140.066 11.519L136.428 12.182C136.303 11.298 135.889 10.601 135.187 10.091C134.484 9.581 133.572 9.30333 132.45 9.258C131.373 9.21267 130.5 9.394 129.832 9.802C129.163 10.1987 128.829 10.7483 128.829 11.451C128.829 11.859 128.953 12.2047 129.203 12.488C129.463 12.7713 129.962 13.0433 130.699 13.304C131.435 13.5647 132.523 13.8763 133.963 14.239C135.504 14.6357 136.728 15.0777 137.635 15.565C138.541 16.041 139.187 16.6133 139.573 17.282C139.969 17.9393 140.168 18.7383 140.168 19.679C140.168 21.4923 139.505 22.9147 138.179 23.946C136.864 24.9773 135.045 25.493 132.722 25.493ZM155.989 25.51C154.153 25.51 152.56 25.0963 151.212 24.269C149.863 23.4417 148.82 22.3027 148.084 20.852C147.358 19.39 146.996 17.707 146.996 15.803C146.996 13.8877 147.37 12.2047 148.118 10.754C148.866 9.292 149.914 8.15867 151.263 7.354C152.611 6.538 154.187 6.13 155.989 6.13C157.825 6.13 159.417 6.54367 160.766 7.371C162.114 8.19833 163.157 9.33733 163.894 10.788C164.63 12.2387 164.999 13.9103 164.999 15.803C164.999 17.7183 164.625 19.407 163.877 20.869C163.14 22.3197 162.097 23.4587 160.749 24.286C159.4 25.102 157.813 25.51 155.989 25.51ZM155.989 22.161C157.745 22.161 159.054 21.5717 159.916 20.393C160.788 19.203 161.225 17.673 161.225 15.803C161.225 13.8877 160.783 12.3577 159.899 11.213C159.026 10.057 157.723 9.479 155.989 9.479C154.799 9.479 153.818 9.751 153.048 10.295C152.277 10.8277 151.705 11.57 151.331 12.522C150.957 13.4627 150.77 14.5563 150.77 15.803C150.77 17.7297 151.212 19.271 152.096 20.427C152.98 21.583 154.277 22.161 155.989 22.161ZM169.057 25V5.994C169.057 5.52933 169.074 5.03633 169.108 4.515C169.142 3.98233 169.239 3.461 169.397 2.951C169.567 2.42967 169.845 1.95367 170.23 1.523C170.695 1.013 171.205 0.650332 171.76 0.434999C172.316 0.219665 172.865 0.0949981 173.409 0.0609978C173.965 0.026999 174.475 0.00999951 174.939 0.00999951H177.251V2.934H175.109C174.271 2.934 173.642 3.14367 173.222 3.563C172.814 3.971 172.61 4.55467 172.61 5.314V25H169.057ZM166.014 9.496V6.64H177.251V9.496H166.014ZM192.188 25.51C190.363 25.51 188.76 25.1133 187.377 24.32C186.006 23.5153 184.935 22.399 184.164 20.971C183.405 19.5317 183.025 17.8657 183.025 15.973C183.025 13.967 183.399 12.2273 184.147 10.754C184.906 9.28067 185.96 8.14167 187.309 7.337C188.658 6.53233 190.227 6.13 192.018 6.13C193.888 6.13 195.48 6.56633 196.795 7.439C198.11 8.30033 199.09 9.53 199.736 11.128C200.393 12.726 200.654 14.6243 200.518 16.823H196.965V15.531C196.942 13.4003 196.534 11.825 195.741 10.805C194.959 9.785 193.763 9.275 192.154 9.275C190.375 9.275 189.037 9.836 188.142 10.958C187.247 12.08 186.799 13.7007 186.799 15.82C186.799 17.8373 187.247 19.4013 188.142 20.512C189.037 21.6113 190.329 22.161 192.018 22.161C193.129 22.161 194.086 21.9117 194.891 21.413C195.707 20.903 196.342 20.1777 196.795 19.237L200.28 20.342C199.566 21.9853 198.484 23.2603 197.033 24.167C195.582 25.0623 193.967 25.51 192.188 25.51ZM185.643 16.823V14.052H198.75V16.823H185.643ZM200.268 25L207.136 15.718L200.421 6.64H204.637L209.21 12.947L213.732 6.64H217.948L211.233 15.718L218.118 25H213.885L209.21 18.489L204.501 25H200.268ZM228.094 25.51C226.338 25.51 224.864 25.085 223.674 24.235C222.484 23.3737 221.583 22.212 220.971 20.75C220.359 19.288 220.053 17.639 220.053 15.803C220.053 13.967 220.354 12.318 220.954 10.856C221.566 9.394 222.462 8.24367 223.64 7.405C224.83 6.555 226.292 6.13 228.026 6.13C229.749 6.13 231.234 6.555 232.48 7.405C233.738 8.24367 234.707 9.394 235.387 10.856C236.067 12.3067 236.407 13.9557 236.407 15.803C236.407 17.639 236.067 19.2937 235.387 20.767C234.719 22.229 233.761 23.385 232.514 24.235C231.279 25.085 229.806 25.51 228.094 25.51ZM219.458 33.16V6.64H222.62V19.849H223.028V33.16H219.458ZM227.601 22.297C228.735 22.297 229.67 22.008 230.406 21.43C231.154 20.852 231.71 20.0757 232.072 19.101C232.446 18.115 232.633 17.0157 232.633 15.803C232.633 14.6017 232.446 13.5137 232.072 12.539C231.71 11.5643 231.149 10.788 230.389 10.21C229.63 9.632 228.661 9.343 227.482 9.343C226.372 9.343 225.454 9.615 224.728 10.159C224.014 10.703 223.482 11.4623 223.13 12.437C222.79 13.4117 222.62 14.5337 222.62 15.803C222.62 17.0723 222.79 18.1943 223.13 19.169C223.47 20.1437 224.009 20.9087 224.745 21.464C225.482 22.0193 226.434 22.297 227.601 22.297ZM246.944 25.51C245.119 25.51 243.516 25.1133 242.133 24.32C240.762 23.5153 239.691 22.399 238.92 20.971C238.161 19.5317 237.781 17.8657 237.781 15.973C237.781 13.967 238.155 12.2273 238.903 10.754C239.662 9.28067 240.716 8.14167 242.065 7.337C243.414 6.53233 244.983 6.13 246.774 6.13C248.644 6.13 250.236 6.56633 251.551 7.439C252.866 8.30033 253.846 9.53 254.492 11.128C255.149 12.726 255.41 14.6243 255.274 16.823H251.721V15.531C251.698 13.4003 251.29 11.825 250.497 10.805C249.715 9.785 248.519 9.275 246.91 9.275C245.131 9.275 243.793 9.836 242.898 10.958C242.003 12.08 241.555 13.7007 241.555 15.82C241.555 17.8373 242.003 19.4013 242.898 20.512C243.793 21.6113 245.085 22.161 246.774 22.161C247.885 22.161 248.842 21.9117 249.647 21.413C250.463 20.903 251.098 20.1777 251.551 19.237L255.036 20.342C254.322 21.9853 253.24 23.2603 251.789 24.167C250.338 25.0623 248.723 25.51 246.944 25.51ZM240.399 16.823V14.052H253.506V16.823H240.399ZM257.728 25V6.64H260.89V11.094L260.448 10.516C260.675 9.92667 260.969 9.38833 261.332 8.901C261.695 8.40233 262.114 7.99433 262.59 7.677C263.055 7.337 263.57 7.07633 264.137 6.895C264.715 6.70233 265.304 6.589 265.905 6.555C266.506 6.50967 267.084 6.538 267.639 6.64V9.972C267.038 9.81333 266.37 9.768 265.633 9.836C264.908 9.904 264.239 10.1363 263.627 10.533C263.049 10.907 262.59 11.3603 262.25 11.893C261.921 12.4257 261.683 13.0207 261.536 13.678C261.389 14.324 261.315 15.0097 261.315 15.735V25H257.728ZM269.857 3.631V0.179999H273.41V3.631H269.857ZM269.857 25V6.64H273.41V25H269.857ZM285.298 25.51C283.473 25.51 281.869 25.1133 280.487 24.32C279.115 23.5153 278.044 22.399 277.274 20.971C276.514 19.5317 276.135 17.8657 276.135 15.973C276.135 13.967 276.509 12.2273 277.257 10.754C278.016 9.28067 279.07 8.14167 280.419 7.337C281.767 6.53233 283.337 6.13 285.128 6.13C286.998 6.13 288.59 6.56633 289.905 7.439C291.219 8.30033 292.2 9.53 292.846 11.128C293.503 12.726 293.764 14.6243 293.628 16.823H290.075V15.531C290.052 13.4003 289.644 11.825 288.851 10.805C288.069 9.785 286.873 9.275 285.264 9.275C283.484 9.275 282.147 9.836 281.252 10.958C280.356 12.08 279.909 13.7007 279.909 15.82C279.909 17.8373 280.356 19.4013 281.252 20.512C282.147 21.6113 283.439 22.161 285.128 22.161C286.238 22.161 287.196 21.9117 288.001 21.413C288.817 20.903 289.451 20.1777 289.905 19.237L293.39 20.342C292.676 21.9853 291.593 23.2603 290.143 24.167C288.692 25.0623 287.077 25.51 285.298 25.51ZM278.753 16.823V14.052H291.86V16.823H278.753ZM308.47 25V15.973C308.47 15.259 308.407 14.528 308.283 13.78C308.169 13.0207 307.943 12.318 307.603 11.672C307.274 11.026 306.804 10.5047 306.192 10.108C305.591 9.71133 304.803 9.513 303.829 9.513C303.194 9.513 302.593 9.62067 302.027 9.836C301.46 10.04 300.961 10.3743 300.531 10.839C300.111 11.3037 299.777 11.9157 299.528 12.675C299.29 13.4343 299.171 14.358 299.171 15.446L296.961 14.613C296.961 12.947 297.272 11.4793 297.896 10.21C298.519 8.92933 299.414 7.932 300.582 7.218C301.749 6.504 303.16 6.147 304.815 6.147C306.084 6.147 307.149 6.351 308.011 6.759C308.872 7.167 309.569 7.70533 310.102 8.374C310.646 9.03133 311.059 9.751 311.343 10.533C311.626 11.315 311.819 12.08 311.921 12.828C312.023 13.576 312.074 14.2333 312.074 14.8V25H308.47ZM295.567 25V6.64H298.746V11.944H299.171V25H295.567ZM322.763 25.51C320.882 25.51 319.284 25.0907 317.969 24.252C316.655 23.4133 315.646 22.263 314.943 20.801C314.252 19.339 313.901 17.6787 313.889 15.82C313.901 13.9273 314.263 12.2557 314.977 10.805C315.691 9.343 316.711 8.19833 318.037 7.371C319.363 6.54367 320.956 6.13 322.814 6.13C324.82 6.13 326.532 6.62867 327.948 7.626C329.376 8.62333 330.317 9.989 330.77 11.723L327.234 12.743C326.883 11.7117 326.305 10.9127 325.5 10.346C324.707 9.768 323.795 9.479 322.763 9.479C321.596 9.479 320.638 9.75667 319.89 10.312C319.142 10.856 318.587 11.604 318.224 12.556C317.862 13.508 317.675 14.596 317.663 15.82C317.675 17.7127 318.105 19.2427 318.955 20.41C319.817 21.5773 321.086 22.161 322.763 22.161C323.908 22.161 324.832 21.9003 325.534 21.379C326.248 20.8463 326.792 20.087 327.166 19.101L330.77 19.951C330.17 21.7417 329.178 23.1187 327.795 24.082C326.413 25.034 324.735 25.51 322.763 25.51ZM340.518 25.51C338.694 25.51 337.09 25.1133 335.707 24.32C334.336 23.5153 333.265 22.399 332.494 20.971C331.735 19.5317 331.355 17.8657 331.355 15.973C331.355 13.967 331.729 12.2273 332.477 10.754C333.237 9.28067 334.291 8.14167 335.639 7.337C336.988 6.53233 338.558 6.13 340.348 6.13C342.218 6.13 343.811 6.56633 345.125 7.439C346.44 8.30033 347.42 9.53 348.066 11.128C348.724 12.726 348.984 14.6243 348.848 16.823H345.295V15.531C345.273 13.4003 344.865 11.825 344.071 10.805C343.289 9.785 342.094 9.275 340.484 9.275C338.705 9.275 337.368 9.836 336.472 10.958C335.577 12.08 335.129 13.7007 335.129 15.82C335.129 17.8373 335.577 19.4013 336.472 20.512C337.368 21.6113 338.66 22.161 340.348 22.161C341.459 22.161 342.417 21.9117 343.221 21.413C344.037 20.903 344.672 20.1777 345.125 19.237L348.61 20.342C347.896 21.9853 346.814 23.2603 345.363 24.167C343.913 25.0623 342.298 25.51 340.518 25.51ZM333.973 16.823V14.052H347.08V16.823H333.973Z" fill="white"/>
</svg>
